<svg width="1427" height="1040" viewBox="0 0 1427 1040" fill="none" xmlns="http://www.w3.org/2000/svg">
<g filter="url(#filter0_d)">
<path d="M657.811 737.143H589.438V739.338H600.1V760.179H602.305V739.338H643.839V760.179H646.044V739.338H657.811V737.143Z" fill="#FFE01B"/>
<path d="M683.45 684.161H664.221V701.557H673.135V760.179H675.538V701.557H683.45V684.161Z" fill="#FFE01B"/>
<path d="M657.811 730.232H589.438V732.536H657.811V730.232Z" fill="#FFE01B"/>
<path d="M657.811 725.625H589.438V727.929H657.811V725.625Z" fill="#FFE01B"/>
<path d="M416.371 972.107C416.371 972.107 417.168 956.632 433.464 958.431L416.371 972.107Z" fill="#3F3D56"/>
<path d="M413.166 955.982C417.296 955.982 420.644 952.888 420.644 949.071C420.644 945.254 417.296 942.161 413.166 942.161C409.036 942.161 405.688 945.254 405.688 949.071C405.688 952.888 409.036 955.982 413.166 955.982Z" fill="#FFE01B"/>
<path d="M414.234 962.893H412.098V976.714H414.234V962.893Z" fill="#3F3D56"/>
<path d="M583.029 852.321C583.029 852.321 583.625 839.426 595.848 840.926L583.029 852.321Z" fill="#3F3D56"/>
<path d="M579.824 838.5C582.772 838.5 585.165 835.92 585.165 832.741C585.165 829.562 582.772 826.982 579.824 826.982C576.875 826.982 574.482 829.562 574.482 832.741C574.482 835.92 576.875 838.5 579.824 838.5Z" fill="#FFE01B"/>
<path d="M580.892 843.107H578.755V854.625H580.892V843.107Z" fill="#3F3D56"/>
<path d="M826.605 813.161C826.605 813.161 827.201 800.265 839.425 801.765L826.605 813.161Z" fill="#3F3D56"/>
<path d="M822.332 801.643C825.872 801.643 828.742 798.549 828.742 794.732C828.742 790.915 825.872 787.821 822.332 787.821C818.791 787.821 815.922 790.915 815.922 794.732C815.922 798.549 818.791 801.643 822.332 801.643Z" fill="#FFE01B"/>
<path d="M593.712 884.571C593.712 884.571 594.308 871.676 606.531 873.176L593.712 884.571Z" fill="#3F3D56"/>
<path d="M591.575 870.75C595.115 870.75 597.985 868.172 597.985 864.991C597.985 861.81 595.115 859.232 591.575 859.232C588.035 859.232 585.165 861.81 585.165 864.991C585.165 868.172 588.035 870.75 591.575 870.75Z" fill="#FFE01B"/>
<path d="M591.575 875.357H589.438V886.875H591.575V875.357Z" fill="#3F3D56"/>
<path d="M568.072 907.607C568.072 907.607 568.668 894.712 580.892 896.211L568.072 907.607Z" fill="#3F3D56"/>
<path d="M563.799 896.089C567.337 896.089 570.209 893.512 570.209 890.33C570.209 887.149 567.337 884.571 563.799 884.571C560.261 884.571 557.389 887.149 557.389 890.33C557.389 893.512 560.261 896.089 563.799 896.089Z" fill="#FFE01B"/>
<path d="M565.935 900.696H563.799V912.214H565.935V900.696Z" fill="#3F3D56"/>
<path d="M862.928 833.893C862.928 833.893 863.524 820.997 875.748 822.497L862.928 833.893Z" fill="#3F3D56"/>
<path d="M860.791 822.375C864.329 822.375 867.201 819.281 867.201 815.464C867.201 811.647 864.329 808.554 860.791 808.554C857.253 808.554 854.381 811.647 854.381 815.464C854.381 819.281 857.253 822.375 860.791 822.375Z" fill="#FFE01B"/>
<path d="M860.791 824.679H858.655V838.5H860.791V824.679Z" fill="#3F3D56"/>
<path d="M506.11 859.232C506.11 859.232 506.706 848.914 518.929 850.115L506.11 859.232Z" fill="#3F3D56"/>
<path d="M502.905 847.714C505.855 847.714 508.246 845.134 508.246 841.955C508.246 838.776 505.855 836.196 502.905 836.196C499.954 836.196 497.563 838.776 497.563 841.955C497.563 845.134 499.954 847.714 502.905 847.714Z" fill="#FFE01B"/>
<path d="M503.973 852.321H501.836V863.839H503.973V852.321Z" fill="#3F3D56"/>
<path d="M792.419 799.339C792.419 799.339 793.015 786.444 805.239 787.944L792.419 799.339Z" fill="#3F3D56"/>
<path d="M790.282 787.821C793.821 787.821 796.692 784.728 796.692 780.911C796.692 777.094 793.821 774 790.282 774C786.742 774 783.872 777.094 783.872 780.911C783.872 784.728 786.742 787.821 790.282 787.821Z" fill="#FFE01B"/>
<path d="M790.282 790.125H788.146V803.946H790.282V790.125Z" fill="#3F3D56"/>
<path d="M958.008 955.982C962.138 955.982 965.487 952.372 965.487 947.92C965.487 943.467 962.138 939.857 958.008 939.857C953.878 939.857 950.53 943.467 950.53 947.92C950.53 952.372 953.878 955.982 958.008 955.982Z" fill="#FFE01B"/>
<path d="M952.667 1025.09C952.667 1025.09 953.462 1009.61 969.76 1011.41L952.667 1025.09Z" fill="#3F3D56"/>
<g filter="url(#filter1_i)">
<path d="M454.533 1030.05C454.533 1030.05 692.484 943.287 690.217 854.431C686.064 829.866 657.358 823.594 657.358 823.594C657.358 823.594 589.372 811.053 626.385 780.736C663.4 750.421 764.623 757.739 764.623 757.739C764.623 757.739 660.379 780.736 706.458 793.281C743.473 796.416 791.062 810.005 791.062 810.005C791.062 810.005 887.753 838.23 901.351 907.222C914.949 976.214 903.618 1029.53 903.618 1029.53L454.533 1030.05Z" fill="#808080"/>
</g>
<path d="M744.026 995.143L742.667 993.625C746.302 991.296 749.881 988.953 753.308 986.659L754.701 988.152C751.263 990.453 747.671 992.807 744.026 995.143ZM765.192 980.955L763.756 979.49C767.273 977.018 770.713 974.53 773.98 972.103L775.463 973.531C772.183 975.973 768.726 978.472 765.192 980.955ZM785.471 965.846L783.93 964.459C787.287 961.792 790.524 959.124 793.551 956.526L795.152 957.862C792.105 960.476 788.846 963.165 785.471 965.846ZM804.427 949.528L802.754 948.254C805.837 945.347 808.754 942.433 811.422 939.597L813.181 940.786C810.484 943.649 807.54 946.59 804.427 949.528ZM821.242 931.562L819.383 930.491C821.999 927.247 824.357 924.009 826.396 920.864L828.368 921.781C826.295 924.978 823.898 928.27 821.242 931.562ZM834.173 911.367L832.081 910.671C833.712 907.183 834.989 903.587 835.899 899.92L838.1 900.303C837.167 904.078 835.852 907.778 834.173 911.367ZM837.175 888.803C837.111 885.101 836.502 881.422 835.367 877.847L837.538 877.35C838.722 881.077 839.354 884.915 839.425 888.771L837.175 888.803ZM830.449 867.566C828.312 864.302 825.804 861.22 822.964 858.366L824.686 857.145C827.624 860.094 830.214 863.279 832.421 866.654L830.449 867.566ZM813.67 850.331C810.328 847.839 806.826 845.501 803.183 843.335L804.48 841.78C808.192 843.987 811.758 846.367 815.161 848.905L813.67 850.331ZM791.913 837.205C788.233 835.374 784.265 833.55 780.12 831.776L781.131 830.076C785.323 831.866 789.331 833.713 793.053 835.565L791.913 837.205ZM767.965 826.908C764.049 825.436 759.88 823.955 755.57 822.502L756.404 820.733C760.739 822.195 764.935 823.686 768.88 825.167L767.965 826.908ZM742.96 818.457C738.954 817.224 734.67 815.962 730.23 814.702L730.944 812.898C735.401 814.163 739.704 815.43 743.727 816.664L742.96 818.457ZM717.399 811.175C713.481 810.129 709.261 809.026 704.501 807.805L705.152 805.983C709.921 807.206 714.147 808.309 718.077 809.358L717.399 811.175ZM691.561 804.515C687.01 803.364 682.673 802.265 678.611 801.205L679.273 799.383C683.329 800.443 687.66 801.541 692.204 802.691L691.561 804.515ZM665.714 797.674C661.388 796.464 657.157 795.022 653.046 793.357L654.059 791.655C658.078 793.283 662.219 794.693 666.449 795.872L665.714 797.674ZM648.732 785.191L647.128 783.855C649.177 782.092 653.234 780.365 659.527 778.58L660.24 780.386C654.373 782.049 650.501 783.668 648.732 785.191ZM673.105 777.283L672.562 775.433C676.453 774.613 680.884 773.756 685.732 772.883L686.2 774.746C681.376 775.615 676.97 776.467 673.105 777.283ZM699.386 772.505L698.965 770.632C703.107 769.962 707.571 769.268 712.231 768.568L712.622 770.443C707.973 771.141 703.52 771.835 699.386 772.505ZM725.888 768.508L725.519 766.631C729.756 766.03 734.191 765.415 738.821 764.786L739.178 766.665C734.55 767.294 730.121 767.909 725.888 768.508Z" fill="white"/>
<path d="M681.628 760.179L681.314 758.601C683.314 758.361 685.346 758.119 687.414 757.875L687.724 759.453C685.655 759.697 683.624 759.939 681.628 760.179Z" fill="white"/>
<path d="M1129.79 445.479L1137.95 435.435C1130.08 436.402 1127.84 441.238 1127.27 444.781C1120.72 443.748 1114.89 448.469 1114.89 448.469L1136.27 450.86C1134.69 448.487 1132.44 446.621 1129.79 445.479Z" fill="#FFE01B"/>
<path d="M1151.05 347.553L1159.22 337.509C1151.34 338.479 1149.1 343.312 1148.53 346.855C1141.98 345.823 1136.16 350.545 1136.16 350.545L1157.54 352.936C1155.96 350.564 1153.71 348.696 1151.05 347.553Z" fill="#FFE01B"/>
<path d="M1137.09 393.717L1146.51 386.292C1139.19 385.498 1136.18 389.43 1134.95 392.542C1129.24 390.204 1123.01 393.268 1123.01 393.268L1141.86 400.01C1140.91 397.509 1139.26 395.325 1137.09 393.717Z" fill="#FFE01B"/>
<path d="M1173.24 297.981L1182.66 290.557C1175.34 289.762 1172.34 293.694 1171.1 296.806C1165.39 294.468 1159.16 297.532 1159.16 297.532L1178.01 304.274C1177.06 301.773 1175.41 299.589 1173.24 297.981Z" fill="#FFE01B"/>
<path d="M974.86 432.565C961.461 408.923 934.954 407.822 934.954 407.822C934.954 407.822 909.124 404.373 892.555 440.376C877.111 473.934 855.796 506.336 889.123 514.192L895.144 494.627L898.87 515.65C903.616 516.005 908.378 516.09 913.13 515.903C948.821 514.698 982.81 516.256 981.716 502.881C980.261 485.102 987.75 455.31 974.86 432.565Z" fill="#2F2E41"/>
<path d="M927.027 475.105C927.027 475.105 944.033 500.785 933.83 521.572C923.626 542.362 957.639 564.375 957.639 564.375L982.58 505.675C982.58 505.675 953.103 484.888 961.04 465.321L927.027 475.105Z" fill="#FBBEBE"/>
<path d="M937.71 486.054C954.229 486.054 967.623 472.131 967.623 454.955C967.623 437.78 954.229 423.857 937.71 423.857C921.19 423.857 907.797 437.78 907.797 454.955C907.797 472.131 921.19 486.054 937.71 486.054Z" fill="#FBBEBE"/>
<path d="M833.015 491.909L858.076 457.833C858.076 457.833 866.9 422.113 879.681 423.924C892.461 425.735 874.632 466.761 874.632 466.761L849.732 504.482L833.015 491.909Z" fill="#FBBEBE"/>
<path d="M961.213 941.166L969.371 985.721L986.853 990.536L982.193 937.554L961.213 941.166Z" fill="#FBBEBE"/>
<path d="M1136.42 894.154L1167.1 938.475L1179.61 944.464L1189.83 926.496L1159.15 884.571L1136.42 894.154Z" fill="#FBBEBE"/>
<path d="M953.406 545.258L934.17 519.08C934.17 519.08 896.898 526.184 893.439 529.759C889.98 533.337 902.665 598.908 902.665 598.908C902.665 598.908 904.971 616.79 915.348 626.33L925.728 633.482L1011.07 615.597L1014.27 576.344C1015.45 562.048 1013.71 547.653 1009.19 534.09C1004.66 520.524 997.446 508.087 988.002 497.571L973.155 499.67L953.406 545.258Z" fill="#575A89"/>
<path d="M898.684 532.275L892.869 529.858L866.122 527.444C866.122 527.444 856.819 525.03 859.144 520.199C861.471 515.369 863.798 514.162 859.144 512.955C854.495 511.745 853.33 510.538 854.495 506.917C855.655 503.294 862.633 496.049 862.633 496.049L842.863 479.143C842.863 479.143 841.794 479.928 840.064 481.382C830.25 489.636 799.192 519.407 821.932 549.178C848.679 584.197 880.077 604.724 905.661 597.48L898.684 532.275Z" fill="#575A89"/>
<path d="M923.991 627.173V644.138C923.991 644.138 913.583 664.739 917.051 684.128C920.521 703.518 921.679 713.211 921.679 713.211C922.055 729.702 924.784 746.039 929.773 761.683C937.868 785.921 911.269 944.667 944.808 947.093C978.345 949.516 996.848 951.939 1007.26 939.823C1017.66 927.703 989.908 719.269 989.908 719.269C989.908 719.269 1084.74 926.492 1104.4 918.008C1124.06 909.526 1173.79 890.137 1168 879.232C1162.22 868.324 1016.51 625.961 1016.51 625.961L1011.88 615.054L923.991 627.173Z" fill="#2F2E41"/>
<path d="M979.441 976.811C979.441 976.811 961.012 975.613 961.012 981.605C961.012 987.594 951.799 1007.96 951.799 1007.96C951.799 1007.96 944.889 1031.92 963.316 1029.53C981.746 1027.13 993.263 1005.57 993.263 1005.57L988.654 982.803L979.441 976.811Z" fill="#2F2E41"/>
<path d="M1172.82 935.49C1172.82 935.49 1156.69 924.96 1157.84 931.979C1158.99 938.998 1160.15 957.717 1168.21 958.887C1176.28 960.057 1200.47 967.076 1201.62 969.417C1202.78 971.757 1230.43 981.116 1230.43 965.908C1230.43 950.698 1213.15 938.998 1213.15 938.998L1193.56 923.79C1193.56 923.79 1180.89 922.62 1178.58 930.809C1176.28 938.998 1172.82 935.49 1172.82 935.49Z" fill="#2F2E41"/>
<path d="M937.71 426.161C948.331 426.161 956.94 417.396 956.94 406.58C956.94 395.767 948.331 387 937.71 387C927.091 387 918.481 395.767 918.481 406.58C918.481 417.396 927.091 426.161 937.71 426.161Z" fill="#2F2E41"/>
<path d="M968.523 429.356L942.548 414.643L906.673 420.662L899.251 456.107L917.726 455.34L922.888 442.318V455.124L931.414 454.771L936.36 434.039L939.454 456.107L969.76 455.439L968.523 429.356Z" fill="#2F2E41"/>
<path d="M967.623 630.561L926.247 631.738C926.247 631.738 890.939 638.976 892.922 623.964C894.901 608.951 929.345 614.201 929.345 614.201L967.048 608.143L967.623 630.561Z" fill="#FBBEBE"/>
<path d="M999.581 495.367C1001.6 495.051 1003.66 495.491 1005.39 496.609C1007.13 497.728 1008.42 499.449 1009.04 501.467C1016.9 527.135 1041.13 613.031 1017.06 624.816C988.705 638.697 968.014 638.085 968.014 638.085L956.94 609.845L967.023 600.044L977.785 528.363L982.943 497.979L999.581 495.367Z" fill="#575A89"/>
<path opacity="0.4" d="M991.126 543.643L986.526 590.551L946.257 608.143L991.126 597.588V543.643Z" fill="black"/>
<path d="M341.851 1022.79L340.61 1022.3C340.337 1022.19 313.178 1011.31 300.456 986.652C287.733 961.988 293.963 932.292 294.027 931.995L294.32 930.643L295.561 931.129C295.835 931.237 322.993 942.115 335.715 966.777C348.439 991.441 342.208 1021.14 342.144 1021.43L341.851 1022.79ZM302.492 985.502C313.248 1006.36 334.711 1017.05 340.148 1019.49C341.183 1013.39 344.424 988.757 333.679 967.924C322.934 947.093 301.463 936.388 296.023 933.942C294.989 940.037 291.747 964.671 302.492 985.502Z" fill="#3F3D56"/>
<path d="M309.716 977.387C332.726 991.51 341.589 1019.57 341.589 1019.57C341.589 1019.57 313.144 1024.72 290.132 1010.6C267.123 996.472 258.26 968.417 258.26 968.417C258.26 968.417 286.705 963.264 309.716 977.387Z" fill="#FFE01B"/>
<path d="M333.042 831.589C340.123 831.589 345.862 825.402 345.862 817.768C345.862 810.134 340.123 803.946 333.042 803.946C325.961 803.946 320.222 810.134 320.222 817.768C320.222 825.402 325.961 831.589 333.042 831.589Z" fill="#FFE01B"/>
<path d="M336.762 1022.79C336.535 1022.37 331.213 1012.33 329.367 991.485C327.673 972.36 328.762 940.127 343.567 895.161C371.615 809.977 337.104 741.246 336.751 740.561L338.454 739.446C338.542 739.619 347.447 757.142 352.708 785.048C359.66 822.043 357.128 860.506 345.411 895.935C317.413 980.974 338.228 1021.23 338.441 1021.63L336.762 1022.79Z" fill="#2F2E41"/>
<path d="M325.564 737.143C322.816 737.143 320.132 736.198 317.848 734.425C315.564 732.653 313.784 730.135 312.733 727.189C311.682 724.243 311.406 720.999 311.943 717.871C312.479 714.743 313.802 711.87 315.744 709.615C317.686 707.36 320.16 705.824 322.855 705.202C325.549 704.582 328.341 704.9 330.878 706.121C333.416 707.342 335.585 709.408 337.112 712.059C338.638 714.711 339.452 717.827 339.452 721.018C339.448 725.293 337.984 729.391 335.38 732.416C332.775 735.438 329.245 737.138 325.564 737.143ZM325.564 707.194C323.209 707.194 320.908 708.007 318.951 709.525C316.992 711.043 315.466 713.202 314.567 715.729C313.665 718.254 313.43 721.032 313.889 723.713C314.349 726.394 315.481 728.859 317.145 730.79C318.812 732.725 320.932 734.04 323.241 734.574C325.551 735.107 327.944 734.832 330.119 733.789C332.294 732.741 334.153 730.969 335.461 728.696C336.77 726.424 337.467 723.752 337.467 721.018C337.465 717.353 336.209 713.84 333.978 711.251C331.745 708.659 328.72 707.199 325.564 707.194Z" fill="#CFCCE0"/>
<path d="M367.228 787.821C374.309 787.821 380.048 781.634 380.048 774C380.048 766.366 374.309 760.179 367.228 760.179C360.147 760.179 354.408 766.366 354.408 774C354.408 781.634 360.147 787.821 367.228 787.821Z" fill="#CFCCE0"/>
<path d="M372.57 854.625C369.822 854.625 367.139 853.747 364.854 852.1C362.57 850.458 360.791 848.117 359.739 845.383C358.688 842.646 358.413 839.636 358.949 836.731C359.485 833.826 360.808 831.158 362.75 829.065C364.692 826.971 367.166 825.542 369.861 824.967C372.555 824.388 375.347 824.685 377.884 825.819C380.422 826.95 382.591 828.871 384.116 831.334C385.644 833.794 386.458 836.689 386.458 839.652C386.454 843.621 384.99 847.426 382.386 850.234C379.783 853.042 376.251 854.62 372.57 854.625ZM372.57 826.819C370.215 826.819 367.914 827.57 365.957 828.979C363.998 830.389 362.472 832.393 361.573 834.741C360.671 837.083 360.436 839.668 360.895 842.153C361.355 844.646 362.487 846.933 364.151 848.726C365.818 850.522 367.938 851.743 370.247 852.241C372.557 852.734 374.95 852.48 377.125 851.511C379.3 850.536 381.159 848.894 382.469 846.781C383.776 844.671 384.475 842.19 384.475 839.652C384.471 836.249 383.215 832.988 380.984 830.58C378.753 828.173 375.726 826.821 372.57 826.819Z" fill="#CFCCE0"/>
<path d="M328.769 900.696C335.85 900.696 341.589 893.993 341.589 885.726C341.589 877.453 335.85 870.75 328.769 870.75C321.688 870.75 315.949 877.453 315.949 885.726C315.949 893.993 321.688 900.696 328.769 900.696Z" fill="#CFCCE0"/>
<path d="M345.625 1022.79C345.625 1022.79 333.754 987.246 369.365 960.589L345.625 1022.79Z" fill="#2F2E41"/>
<path d="M328.769 1022.79C328.769 1022.79 322.902 983.289 277.49 983.627L328.769 1022.79Z" fill="#2F2E41"/>
<path d="M1192.4 327.544L1202.7 319.814C1194.83 318.809 1191.51 322.946 1190.12 326.245C1184.01 323.626 1177.24 326.77 1177.24 326.77L1197.42 334.365C1196.44 331.675 1194.7 329.307 1192.4 327.544Z" fill="#FFE01B"/>
<path d="M1126.14 299.034L1136.42 290.372C1128.43 289.444 1125.15 294.032 1123.81 297.663C1117.57 294.933 1110.78 298.511 1110.78 298.511L1131.35 306.375C1130.31 303.456 1128.5 300.909 1126.14 299.034Z" fill="#FFE01B"/>
<path d="M1038.23 587.595C1040.04 587.139 1041.93 587.537 1043.48 588.701C1045.04 589.864 1046.13 591.698 1046.52 593.799C1046.91 595.899 1046.57 598.092 1045.57 599.898C1044.57 601.707 1042.99 602.976 1041.18 603.432C1037.42 604.379 1027.45 598.599 1027.45 598.599C1027.45 598.599 1034.47 588.542 1038.23 587.595Z" fill="#FFE01B"/>
<path d="M361.346 698.811C362.525 697.04 364.22 695.925 366.055 695.715C367.891 695.506 369.717 696.215 371.136 697.692C372.551 699.169 373.442 701.29 373.61 703.587C373.777 705.883 373.209 708.171 372.029 709.945C369.572 713.635 358.682 716.411 358.682 716.411C358.682 716.411 358.889 702.504 361.346 698.811Z" fill="#FFE01B"/>
<path d="M297.121 743.542C297.542 741.679 298.238 740.31 299.059 739.739C299.879 739.168 300.757 739.44 301.499 740.495C302.24 741.55 302.785 743.3 303.012 745.364C303.24 747.428 303.133 749.635 302.715 751.501C301.839 755.385 297.07 760.179 297.07 760.179C297.07 760.179 296.247 747.426 297.121 743.542Z" fill="#FFE01B"/>
<path d="M1245.39 1032L152.484 1029.7H4H1227.92L1245.39 1032Z" fill="#3F3D56"/>
</g>
<defs>
<filter id="filter0_d" x="0" y="0" width="1431" height="1040" filterUnits="userSpaceOnUse" color-interpolation-filters="sRGB">
<feFlood flood-opacity="0" result="BackgroundImageFix"/>
<feColorMatrix in="SourceAlpha" type="matrix" values="0 0 0 0 0 0 0 0 0 0 0 0 0 0 0 0 0 0 127 0" result="hardAlpha"/>
<feOffset dy="4"/>
<feGaussianBlur stdDeviation="2"/>
<feComposite in2="hardAlpha" operator="out"/>
<feColorMatrix type="matrix" values="0 0 0 0 0 0 0 0 0 0 0 0 0 0 0 0 0 0 0.25 0"/>
<feBlend mode="normal" in2="BackgroundImageFix" result="effect1_dropShadow"/>
<feBlend mode="normal" in="SourceGraphic" in2="effect1_dropShadow" result="shape"/>
</filter>
<filter id="filter1_i" x="454.533" y="756.963" width="453.51" height="277.088" filterUnits="userSpaceOnUse" color-interpolation-filters="sRGB">
<feFlood flood-opacity="0" result="BackgroundImageFix"/>
<feBlend mode="normal" in="SourceGraphic" in2="BackgroundImageFix" result="shape"/>
<feColorMatrix in="SourceAlpha" type="matrix" values="0 0 0 0 0 0 0 0 0 0 0 0 0 0 0 0 0 0 127 0" result="hardAlpha"/>
<feOffset dy="4"/>
<feGaussianBlur stdDeviation="2"/>
<feComposite in2="hardAlpha" operator="arithmetic" k2="-1" k3="1"/>
<feColorMatrix type="matrix" values="0 0 0 0 0 0 0 0 0 0 0 0 0 0 0 0 0 0 0.25 0"/>
<feBlend mode="normal" in2="shape" result="effect1_innerShadow"/>
</filter>
</defs>
</svg>
