<svg width="870" height="644" viewBox="0 0 870 644" fill="none" xmlns="http://www.w3.org/2000/svg">
<g filter="url(#filter0_d)">
<path d="M401.892 454.286H360.282V455.639H366.771V468.482H368.113V455.639H393.389V468.482H394.731V455.639H401.892V454.286Z" fill="#FFE01B"/>
<path d="M417.496 421.634H405.793V432.355H411.218V468.482H412.68V432.355H417.496V421.634Z" fill="#FFE01B"/>
<path d="M401.892 450.027H360.282V451.446H401.892V450.027Z" fill="#FFE01B"/>
<path d="M401.892 447.188H360.282V448.607H401.892V447.188Z" fill="#FFE01B"/>
<path d="M254.958 599.089C254.958 599.089 255.443 589.552 265.36 590.661L254.958 599.089Z" fill="#3F3D56"/>
<path d="M253.008 589.152C255.521 589.152 257.559 587.245 257.559 584.893C257.559 582.54 255.521 580.634 253.008 580.634C250.494 580.634 248.456 582.54 248.456 584.893C248.456 587.245 250.494 589.152 253.008 589.152Z" fill="#FFE01B"/>
<path d="M253.658 593.411H252.357V601.929H253.658V593.411Z" fill="#3F3D56"/>
<path d="M356.381 525.268C356.381 525.268 356.744 517.321 364.183 518.245L356.381 525.268Z" fill="#3F3D56"/>
<path d="M354.431 516.75C356.225 516.75 357.682 515.16 357.682 513.201C357.682 511.242 356.225 509.652 354.431 509.652C352.637 509.652 351.18 511.242 351.18 513.201C351.18 515.16 352.637 516.75 354.431 516.75Z" fill="#FFE01B"/>
<path d="M355.081 519.589H353.781V526.688H355.081V519.589Z" fill="#3F3D56"/>
<path d="M504.616 501.134C504.616 501.134 504.978 493.187 512.417 494.111L504.616 501.134Z" fill="#3F3D56"/>
<path d="M502.015 494.036C504.17 494.036 505.916 492.129 505.916 489.777C505.916 487.424 504.17 485.518 502.015 485.518C499.86 485.518 498.114 487.424 498.114 489.777C498.114 492.129 499.86 494.036 502.015 494.036Z" fill="#FFE01B"/>
<path d="M362.883 545.143C362.883 545.143 363.246 537.196 370.685 538.12L362.883 545.143Z" fill="#3F3D56"/>
<path d="M361.583 536.625C363.737 536.625 365.483 535.036 365.483 533.076C365.483 531.115 363.737 529.527 361.583 529.527C359.428 529.527 357.682 531.115 357.682 533.076C357.682 535.036 359.428 536.625 361.583 536.625Z" fill="#FFE01B"/>
<path d="M361.583 539.464H360.282V546.563H361.583V539.464Z" fill="#3F3D56"/>
<path d="M347.279 559.339C347.279 559.339 347.642 551.392 355.081 552.316L347.279 559.339Z" fill="#3F3D56"/>
<path d="M344.679 552.241C346.832 552.241 348.58 550.653 348.58 548.692C348.58 546.731 346.832 545.143 344.679 545.143C342.525 545.143 340.778 546.731 340.778 548.692C340.778 550.653 342.525 552.241 344.679 552.241Z" fill="#FFE01B"/>
<path d="M345.979 555.08H344.679V562.179H345.979V555.08Z" fill="#3F3D56"/>
<path d="M526.721 513.911C526.721 513.911 527.083 505.964 534.523 506.888L526.721 513.911Z" fill="#3F3D56"/>
<path d="M525.42 506.812C527.574 506.812 529.321 504.906 529.321 502.554C529.321 500.201 527.574 498.295 525.42 498.295C523.267 498.295 521.52 500.201 521.52 502.554C521.52 504.906 523.267 506.812 525.42 506.812Z" fill="#FFE01B"/>
<path d="M525.42 508.232H524.12V516.75H525.42V508.232Z" fill="#3F3D56"/>
<path d="M309.571 529.527C309.571 529.527 309.933 523.168 317.372 523.908L309.571 529.527Z" fill="#3F3D56"/>
<path d="M307.62 522.429C309.416 522.429 310.871 520.839 310.871 518.879C310.871 516.92 309.416 515.33 307.62 515.33C305.824 515.33 304.369 516.92 304.369 518.879C304.369 520.839 305.824 522.429 307.62 522.429Z" fill="#FFE01B"/>
<path d="M308.27 525.268H306.97V532.366H308.27V525.268Z" fill="#3F3D56"/>
<path d="M483.811 492.616C483.811 492.616 484.174 484.669 491.613 485.593L483.811 492.616Z" fill="#3F3D56"/>
<path d="M482.511 485.518C484.664 485.518 486.411 483.611 486.411 481.259C486.411 478.907 484.664 477 482.511 477C480.356 477 478.61 478.907 478.61 481.259C478.61 483.611 480.356 485.518 482.511 485.518Z" fill="#FFE01B"/>
<path d="M482.51 486.938H481.21V495.455H482.51V486.938Z" fill="#3F3D56"/>
<path d="M584.584 589.152C587.098 589.152 589.135 586.927 589.135 584.183C589.135 581.439 587.098 579.214 584.584 579.214C582.071 579.214 580.033 581.439 580.033 584.183C580.033 586.927 582.071 589.152 584.584 589.152Z" fill="#FFE01B"/>
<path d="M581.333 631.741C581.333 631.741 581.817 622.204 591.736 623.313L581.333 631.741Z" fill="#3F3D56"/>
<g filter="url(#filter1_i)">
<path d="M278.183 634.799C278.183 634.799 422.993 581.328 421.614 526.568C419.086 511.429 401.616 507.563 401.616 507.563C401.616 507.563 360.242 499.835 382.767 481.151C405.293 462.469 466.895 466.979 466.895 466.979C466.895 466.979 403.455 481.151 431.497 488.882C454.024 490.815 482.985 499.189 482.985 499.189C482.985 499.189 541.829 516.584 550.104 559.102C558.379 601.621 551.484 634.477 551.484 634.477L278.183 634.799Z" fill="#808080"/>
</g>
<path d="M454.36 613.286L453.533 612.35C455.745 610.915 457.923 609.471 460.009 608.057L460.857 608.977C458.764 610.395 456.579 611.846 454.36 613.286ZM467.241 604.542L466.367 603.639C468.508 602.116 470.601 600.583 472.589 599.086L473.492 599.967C471.496 601.471 469.392 603.012 467.241 604.542ZM479.582 595.231L478.645 594.376C480.688 592.732 482.657 591.088 484.5 589.487L485.474 590.31C483.62 591.922 481.637 593.578 479.582 595.231ZM491.118 585.174L490.1 584.389C491.977 582.597 493.752 580.801 495.376 579.054L496.446 579.786C494.805 581.551 493.013 583.364 491.118 585.174ZM501.352 574.102L500.221 573.442C501.812 571.443 503.248 569.447 504.488 567.509L505.688 568.074C504.427 570.045 502.968 572.073 501.352 574.102ZM509.221 561.656L507.948 561.227C508.94 559.078 509.718 556.862 510.272 554.602L511.611 554.838C511.043 557.164 510.243 559.444 509.221 561.656ZM511.048 547.751C511.009 545.469 510.639 543.202 509.948 540.999L511.269 540.692C511.99 542.989 512.375 545.354 512.417 547.731L511.048 547.751ZM506.955 534.663C505.655 532.651 504.128 530.752 502.4 528.993L503.448 528.241C505.236 530.058 506.812 532.021 508.155 534.101L506.955 534.663ZM496.744 524.041C494.71 522.505 492.579 521.064 490.362 519.73L491.151 518.772C493.41 520.132 495.58 521.598 497.651 523.163L496.744 524.041ZM483.503 515.952C481.264 514.824 478.849 513.699 476.326 512.606L476.941 511.558C479.493 512.661 481.932 513.8 484.197 514.941L483.503 515.952ZM468.929 509.606C466.545 508.699 464.009 507.786 461.386 506.891L461.893 505.8C464.531 506.702 467.085 507.62 469.485 508.533L468.929 509.606ZM453.711 504.398C451.273 503.638 448.666 502.86 445.964 502.084L446.399 500.972C449.111 501.751 451.73 502.532 454.178 503.293L453.711 504.398ZM438.156 499.91C435.771 499.266 433.203 498.586 430.306 497.833L430.703 496.71C433.605 497.464 436.177 498.144 438.568 498.79L438.156 499.91ZM422.431 495.806C419.662 495.096 417.022 494.419 414.55 493.766L414.953 492.643C417.421 493.296 420.057 493.973 422.823 494.682L422.431 495.806ZM406.702 491.59C404.069 490.844 401.494 489.956 398.992 488.929L399.609 487.88C402.054 488.884 404.574 489.753 407.149 490.479L406.702 491.59ZM396.367 483.897L395.39 483.073C396.637 481.987 399.107 480.922 402.936 479.822L403.37 480.935C399.8 481.96 397.444 482.958 396.367 483.897ZM411.199 479.023L410.869 477.883C413.237 477.378 415.934 476.85 418.884 476.311L419.169 477.46C416.233 477.995 413.552 478.52 411.199 479.023ZM427.193 476.079L426.937 474.924C429.458 474.511 432.175 474.084 435.011 473.652L435.249 474.808C432.419 475.238 429.709 475.666 427.193 476.079ZM443.322 473.616L443.097 472.459C445.676 472.088 448.375 471.709 451.193 471.321L451.41 472.48C448.593 472.867 445.898 473.246 443.322 473.616Z" fill="white"/>
<path d="M416.386 468.482L416.195 467.51C417.412 467.362 418.649 467.213 419.908 467.062L420.096 468.035C418.837 468.185 417.601 468.335 416.386 468.482Z" fill="white"/>
<path d="M689.126 274.539L694.094 268.349C689.301 268.946 687.937 271.925 687.593 274.109C683.603 273.473 680.06 276.382 680.06 276.382L693.072 277.855C692.108 276.393 690.739 275.243 689.126 274.539Z" fill="#FFE01B"/>
<path d="M702.067 214.19L707.035 208C702.241 208.598 700.878 211.576 700.533 213.759C696.545 213.123 693 216.034 693 216.034L706.013 217.507C705.05 216.045 703.681 214.894 702.067 214.19Z" fill="#FFE01B"/>
<path d="M693.569 242.639L699.303 238.064C694.848 237.574 693.018 239.998 692.269 241.915C688.789 240.475 685 242.363 685 242.363L696.474 246.518C695.894 244.976 694.887 243.63 693.569 242.639Z" fill="#FFE01B"/>
<path d="M715.569 183.639L721.303 179.064C716.848 178.574 715.018 180.998 714.269 182.915C710.789 181.475 707 183.363 707 183.363L718.474 187.518C717.894 185.976 716.887 184.63 715.569 183.639Z" fill="#FFE01B"/>
<path d="M594.84 266.581C586.685 252.011 570.554 251.332 570.554 251.332C570.554 251.332 554.835 249.207 544.751 271.395C535.352 292.076 522.38 312.045 542.662 316.886L546.327 304.829L548.594 317.784C551.482 318.003 554.381 318.055 557.273 317.94C578.993 317.198 599.678 318.158 599.012 309.915C598.127 298.958 602.684 280.598 594.84 266.581Z" fill="#2F2E41"/>
<path d="M565.73 292.797C565.73 292.797 576.079 308.623 569.87 321.434C563.66 334.246 584.359 347.812 584.359 347.812L599.538 311.637C599.538 311.637 581.599 298.826 586.429 286.768L565.73 292.797Z" fill="#FBBEBE"/>
<path d="M572.231 299.545C582.284 299.545 590.435 290.964 590.435 280.379C590.435 269.795 582.284 261.214 572.231 261.214C562.177 261.214 554.027 269.795 554.027 280.379C554.027 290.964 562.177 299.545 572.231 299.545Z" fill="#FBBEBE"/>
<path d="M508.517 303.153L523.768 282.153C523.768 282.153 529.138 260.14 536.916 261.255C544.693 262.371 533.844 287.655 533.844 287.655L518.69 310.902L508.517 303.153Z" fill="#FBBEBE"/>
<path d="M586.535 580.021L591.499 607.479L602.138 610.446L599.302 577.795L586.535 580.021Z" fill="#FBBEBE"/>
<path d="M693.159 551.049L711.834 578.363L719.442 582.054L725.667 570.98L706.992 545.143L693.159 551.049Z" fill="#FBBEBE"/>
<path d="M581.783 336.031L570.077 319.898C570.077 319.898 547.394 324.276 545.289 326.48C543.184 328.684 550.904 369.094 550.904 369.094C550.904 369.094 552.307 380.115 558.622 385.994L564.939 390.402L616.874 379.38L618.826 355.189C619.539 346.379 618.484 337.507 615.729 329.148C612.976 320.788 608.585 313.124 602.838 306.643L593.802 307.936L581.783 336.031Z" fill="#575A89"/>
<path d="M548.481 328.03L544.942 326.541L528.665 325.053C528.665 325.053 523.003 323.565 524.418 320.588C525.834 317.611 527.25 316.867 524.418 316.123C521.588 315.378 520.88 314.634 521.588 312.402C522.294 310.169 526.541 305.704 526.541 305.704L514.51 295.286C514.51 295.286 513.859 295.77 512.806 296.666C506.834 301.752 487.933 320.1 501.772 338.447C518.049 360.029 537.157 372.679 552.727 368.214L548.481 328.03Z" fill="#575A89"/>
<path d="M563.882 386.513V396.969C563.882 396.969 557.548 409.665 559.659 421.614C561.77 433.563 562.475 439.537 562.475 439.537C562.704 449.7 564.364 459.768 567.401 469.409C572.327 484.347 556.14 582.178 576.551 583.673C596.96 585.167 608.221 586.66 614.555 579.193C620.888 571.724 603.998 443.271 603.998 443.271C603.998 443.271 661.709 570.978 673.673 565.749C685.637 560.522 715.9 548.573 712.382 541.852C708.862 535.13 620.185 385.767 620.185 385.767L617.369 379.045L563.882 386.513Z" fill="#2F2E41"/>
<path d="M597.627 601.988C597.627 601.988 586.412 601.25 586.412 604.942C586.412 608.633 580.805 621.186 580.805 621.186C580.805 621.186 576.6 635.953 587.814 634.477C599.03 633 606.039 619.71 606.039 619.71L603.234 605.681L597.627 601.988Z" fill="#2F2E41"/>
<path d="M715.312 576.523C715.312 576.523 705.496 570.033 706.199 574.359C706.898 578.685 707.6 590.221 712.509 590.942C717.416 591.663 732.142 595.989 732.842 597.431C733.544 598.874 750.372 604.642 750.372 595.269C750.372 585.895 739.854 578.685 739.854 578.685L727.934 569.312C727.934 569.312 720.221 568.591 718.819 573.638C717.416 578.685 715.312 576.523 715.312 576.523Z" fill="#2F2E41"/>
<path d="M572.231 262.634C578.695 262.634 583.934 257.232 583.934 250.567C583.934 243.903 578.695 238.5 572.231 238.5C565.769 238.5 560.529 243.903 560.529 250.567C560.529 257.232 565.769 262.634 572.231 262.634Z" fill="#2F2E41"/>
<path d="M590.983 264.603L575.175 255.536L553.343 259.245L548.826 281.089L560.07 280.617L563.211 272.591V280.483L568.399 280.266L571.409 267.489L573.292 281.089L591.736 280.678L590.983 264.603Z" fill="#2F2E41"/>
<path d="M590.435 388.602L565.255 389.327C565.255 389.327 543.768 393.788 544.974 384.536C546.178 375.284 567.141 378.519 567.141 378.519L590.086 374.786L590.435 388.602Z" fill="#FBBEBE"/>
<path d="M609.884 305.284C611.113 305.09 612.368 305.361 613.422 306.049C614.478 306.739 615.265 307.8 615.639 309.043C620.424 324.863 635.17 377.798 620.52 385.061C603.266 393.616 590.673 393.238 590.673 393.238L583.934 375.835L590.07 369.794L596.62 325.619L599.759 306.894L609.884 305.284Z" fill="#575A89"/>
<path opacity="0.4" d="M604.739 335.036L601.939 363.944L577.432 374.786L604.739 368.281V335.036Z" fill="black"/>
<path d="M209.607 630.321L208.852 630.022C208.685 629.955 192.157 623.252 184.415 608.053C176.672 592.853 180.464 574.552 180.503 574.369L180.681 573.536L181.436 573.835C181.603 573.902 198.131 580.606 205.873 595.804C213.616 611.004 209.825 629.305 209.786 629.488L209.607 630.321ZM185.655 607.344C192.2 620.197 205.262 626.784 208.571 628.288C209.2 624.534 211.173 609.35 204.634 596.511C198.095 583.673 185.028 577.076 181.717 575.569C181.088 579.325 179.115 594.507 185.655 607.344Z" fill="#3F3D56"/>
<path d="M190.051 602.343C204.054 611.047 209.447 628.337 209.447 628.337C209.447 628.337 192.137 631.513 178.132 622.809C164.129 614.105 158.736 596.815 158.736 596.815C158.736 596.815 176.047 593.639 190.051 602.343Z" fill="#FFE01B"/>
<path d="M204.246 512.491C208.555 512.491 212.048 508.678 212.048 503.973C212.048 499.269 208.555 495.455 204.246 495.455C199.937 495.455 196.444 499.269 196.444 503.973C196.444 508.678 199.937 512.491 204.246 512.491Z" fill="#FFE01B"/>
<path d="M206.51 630.321C206.372 630.064 203.133 623.878 202.01 611.031C200.979 599.245 201.642 579.38 210.652 551.669C227.721 499.172 206.718 456.814 206.504 456.392L207.54 455.705C207.593 455.812 213.013 466.611 216.214 483.809C220.445 506.608 218.905 530.312 211.774 552.146C194.735 604.554 207.402 629.363 207.532 629.607L206.51 630.321Z" fill="#2F2E41"/>
<path d="M199.695 454.286C198.023 454.286 196.39 453.704 195 452.611C193.61 451.519 192.527 449.967 191.887 448.151C191.247 446.336 191.079 444.337 191.406 442.409C191.732 440.481 192.537 438.711 193.719 437.321C194.901 435.931 196.407 434.984 198.046 434.601C199.686 434.219 201.386 434.415 202.929 435.167C204.474 435.92 205.794 437.193 206.723 438.827C207.652 440.461 208.147 442.382 208.147 444.348C208.145 446.983 207.254 449.509 205.669 451.373C204.084 453.235 201.936 454.283 199.695 454.286ZM199.695 435.829C198.262 435.829 196.862 436.33 195.671 437.266C194.478 438.201 193.55 439.531 193.003 441.089C192.454 442.645 192.311 444.357 192.59 446.009C192.87 447.662 193.559 449.181 194.572 450.37C195.586 451.563 196.876 452.373 198.282 452.703C199.687 453.031 201.144 452.862 202.467 452.219C203.791 451.573 204.922 450.481 205.718 449.08C206.515 447.68 206.939 446.033 206.939 444.348C206.938 442.09 206.173 439.925 204.816 438.329C203.457 436.732 201.616 435.832 199.695 435.829Z" fill="#CFCCE0"/>
<path d="M225.051 485.518C229.36 485.518 232.853 481.705 232.853 477C232.853 472.295 229.36 468.482 225.051 468.482C220.742 468.482 217.249 472.295 217.249 477C217.249 481.705 220.742 485.518 225.051 485.518Z" fill="#CFCCE0"/>
<path d="M228.302 526.687C226.63 526.687 224.996 526.147 223.606 525.132C222.216 524.119 221.133 522.677 220.493 520.992C219.854 519.305 219.686 517.45 220.012 515.66C220.339 513.87 221.144 512.226 222.326 510.935C223.508 509.645 225.013 508.764 226.653 508.41C228.293 508.053 229.992 508.236 231.536 508.935C233.08 509.632 234.4 510.816 235.329 512.333C236.258 513.85 236.754 515.634 236.754 517.46C236.751 519.906 235.86 522.251 234.275 523.982C232.692 525.712 230.542 526.685 228.302 526.687ZM228.302 509.551C226.869 509.551 225.468 510.014 224.277 510.883C223.085 511.751 222.157 512.987 221.609 514.433C221.06 515.877 220.917 517.47 221.197 519.002C221.477 520.538 222.166 521.947 223.179 523.052C224.193 524.159 225.483 524.912 226.888 525.218C228.294 525.522 229.75 525.366 231.074 524.768C232.398 524.168 233.529 523.155 234.326 521.854C235.122 520.553 235.547 519.024 235.547 517.46C235.544 515.363 234.78 513.353 233.422 511.869C232.065 510.386 230.222 509.552 228.302 509.551Z" fill="#CFCCE0"/>
<path d="M201.646 555.08C205.955 555.08 209.447 550.949 209.447 545.854C209.447 540.756 205.955 536.625 201.646 536.625C197.336 536.625 193.844 540.756 193.844 545.854C193.844 550.949 197.336 555.08 201.646 555.08Z" fill="#CFCCE0"/>
<path d="M211.904 630.321C211.904 630.321 204.679 608.419 226.351 591.991L211.904 630.321Z" fill="#2F2E41"/>
<path d="M201.646 630.321C201.646 630.321 198.075 605.98 170.438 606.189L201.646 630.321Z" fill="#2F2E41"/>
<path d="M727.228 201.859L733.498 197.094C728.708 196.475 726.687 199.025 725.842 201.058C722.121 199.444 718 201.382 718 201.382L730.283 206.062C729.688 204.404 728.63 202.945 727.228 201.859Z" fill="#FFE01B"/>
<path d="M686.903 184.288L693.159 178.95C688.3 178.378 686.303 181.206 685.486 183.443C681.689 181.761 677.556 183.966 677.556 183.966L690.072 188.812C689.44 187.014 688.342 185.444 686.903 184.288Z" fill="#FFE01B"/>
<path d="M633.408 362.122C634.508 361.841 635.656 362.087 636.601 362.804C637.547 363.521 638.212 364.651 638.45 365.946C638.688 367.24 638.48 368.592 637.87 369.705C637.262 370.819 636.302 371.601 635.202 371.883C632.914 372.466 626.844 368.904 626.844 368.904C626.844 368.904 631.118 362.706 633.408 362.122Z" fill="#FFE01B"/>
<path d="M221.471 430.663C222.189 429.571 223.22 428.884 224.337 428.755C225.454 428.626 226.566 429.063 227.429 429.973C228.29 430.883 228.832 432.19 228.935 433.606C229.036 435.021 228.691 436.431 227.973 437.524C226.477 439.798 219.85 441.509 219.85 441.509C219.85 441.509 219.976 432.939 221.471 430.663Z" fill="#FFE01B"/>
<path d="M182.386 458.23C182.642 457.081 183.066 456.238 183.565 455.886C184.064 455.534 184.599 455.701 185.05 456.351C185.501 457.001 185.833 458.08 185.971 459.352C186.11 460.624 186.045 461.984 185.79 463.134C185.257 465.528 182.354 468.482 182.354 468.482C182.354 468.482 181.854 460.623 182.386 458.23Z" fill="#FFE01B"/>
<path d="M759.475 636L94.3633 634.58H4H748.843L759.475 636Z" fill="#3F3D56"/>
</g>
<defs>
<filter id="filter0_d" x="0" y="0" width="874" height="644" filterUnits="userSpaceOnUse" color-interpolation-filters="sRGB">
<feFlood flood-opacity="0" result="BackgroundImageFix"/>
<feColorMatrix in="SourceAlpha" type="matrix" values="0 0 0 0 0 0 0 0 0 0 0 0 0 0 0 0 0 0 127 0" result="hardAlpha"/>
<feOffset dy="4"/>
<feGaussianBlur stdDeviation="2"/>
<feComposite in2="hardAlpha" operator="out"/>
<feColorMatrix type="matrix" values="0 0 0 0 0 0 0 0 0 0 0 0 0 0 0 0 0 0 0.25 0"/>
<feBlend mode="normal" in2="BackgroundImageFix" result="effect1_dropShadow"/>
<feBlend mode="normal" in="SourceGraphic" in2="effect1_dropShadow" result="shape"/>
</filter>
<filter id="filter1_i" x="278.183" y="466.501" width="275.994" height="172.298" filterUnits="userSpaceOnUse" color-interpolation-filters="sRGB">
<feFlood flood-opacity="0" result="BackgroundImageFix"/>
<feBlend mode="normal" in="SourceGraphic" in2="BackgroundImageFix" result="shape"/>
<feColorMatrix in="SourceAlpha" type="matrix" values="0 0 0 0 0 0 0 0 0 0 0 0 0 0 0 0 0 0 127 0" result="hardAlpha"/>
<feOffset dy="4"/>
<feGaussianBlur stdDeviation="2"/>
<feComposite in2="hardAlpha" operator="arithmetic" k2="-1" k3="1"/>
<feColorMatrix type="matrix" values="0 0 0 0 0 0 0 0 0 0 0 0 0 0 0 0 0 0 0.25 0"/>
<feBlend mode="normal" in2="shape" result="effect1_innerShadow"/>
</filter>
</defs>
</svg>
