<svg width="666" height="448" viewBox="0 0 666 448" fill="none" xmlns="http://www.w3.org/2000/svg">
<path d="M306 320H274V320.953H278.99V330H280.022V320.953H299.461V330H300.493V320.953H306V320Z" fill="#FFE01B"/>
<path d="M318 297H309V304.552H313.172V330H314.297V304.552H318V297Z" fill="#FFE01B"/>
<path d="M306 317H274V318H306V317Z" fill="#FFE01B"/>
<path d="M306 315H274V316H306V315Z" fill="#FFE01B"/>
<path d="M193 422C193 422 193.373 415.282 201 416.063L193 422Z" fill="#3F3D56"/>
<path d="M191.5 415C193.433 415 195 413.657 195 412C195 410.343 193.433 409 191.5 409C189.567 409 188 410.343 188 412C188 413.657 189.567 415 191.5 415Z" fill="#FFE01B"/>
<path d="M192 418H191V424H192V418Z" fill="#3F3D56"/>
<path d="M271 370C271 370 271.279 364.402 277 365.053L271 370Z" fill="#3F3D56"/>
<path d="M269.5 364C270.88 364 272 362.88 272 361.5C272 360.12 270.88 359 269.5 359C268.12 359 267 360.12 267 361.5C267 362.88 268.12 364 269.5 364Z" fill="#FFE01B"/>
<path d="M270 366H269V371H270V366Z" fill="#3F3D56"/>
<path d="M385 353C385 353 385.279 347.402 391 348.053L385 353Z" fill="#3F3D56"/>
<path d="M383 348C384.657 348 386 346.657 386 345C386 343.343 384.657 342 383 342C381.343 342 380 343.343 380 345C380 346.657 381.343 348 383 348Z" fill="#FFE01B"/>
<path d="M276 384C276 384 276.279 378.402 282 379.053L276 384Z" fill="#3F3D56"/>
<path d="M275 378C276.657 378 278 376.881 278 375.5C278 374.119 276.657 373 275 373C273.343 373 272 374.119 272 375.5C272 376.881 273.343 378 275 378Z" fill="#FFE01B"/>
<path d="M275 380H274V385H275V380Z" fill="#3F3D56"/>
<path d="M264 394C264 394 264.279 388.402 270 389.053L264 394Z" fill="#3F3D56"/>
<path d="M262 389C263.656 389 265 387.881 265 386.5C265 385.119 263.656 384 262 384C260.344 384 259 385.119 259 386.5C259 387.881 260.344 389 262 389Z" fill="#FFE01B"/>
<path d="M263 391H262V396H263V391Z" fill="#3F3D56"/>
<path d="M402 362C402 362 402.279 356.402 408 357.053L402 362Z" fill="#3F3D56"/>
<path d="M401 357C402.656 357 404 355.657 404 354C404 352.343 402.656 351 401 351C399.344 351 398 352.343 398 354C398 355.657 399.344 357 401 357Z" fill="#FFE01B"/>
<path d="M401 358H400V364H401V358Z" fill="#3F3D56"/>
<path d="M235 373C235 373 235.279 368.521 241 369.042L235 373Z" fill="#3F3D56"/>
<path d="M233.5 368C234.881 368 236 366.88 236 365.5C236 364.12 234.881 363 233.5 363C232.119 363 231 364.12 231 365.5C231 366.88 232.119 368 233.5 368Z" fill="#FFE01B"/>
<path d="M234 370H233V375H234V370Z" fill="#3F3D56"/>
<path d="M369 347C369 347 369.279 341.402 375 342.053L369 347Z" fill="#3F3D56"/>
<path d="M368 342C369.656 342 371 340.657 371 339C371 337.343 369.656 336 368 336C366.343 336 365 337.343 365 339C365 340.657 366.343 342 368 342Z" fill="#FFE01B"/>
<path d="M368 343H367V349H368V343Z" fill="#3F3D56"/>
<path d="M446.5 415C448.433 415 450 413.433 450 411.5C450 409.567 448.433 408 446.5 408C444.567 408 443 409.567 443 411.5C443 413.433 444.567 415 446.5 415Z" fill="#FFE01B"/>
<path d="M444 445C444 445 444.372 438.282 452 439.063L444 445Z" fill="#3F3D56"/>
<g filter="url(#filter0_i)">
<path d="M210.861 447.154C210.861 447.154 322.228 409.489 321.167 370.916C319.223 360.252 305.788 357.529 305.788 357.529C305.788 357.529 273.969 352.085 291.292 338.924C308.616 325.764 355.991 328.941 355.991 328.941C355.991 328.941 307.202 338.924 328.768 344.37C346.092 345.731 368.365 351.63 368.365 351.63C368.365 351.63 413.619 363.883 419.983 393.833C426.347 423.783 421.044 446.927 421.044 446.927L210.861 447.154Z" fill="#808080"/>
</g>
<path d="M346.351 432L345.715 431.341C347.416 430.33 349.091 429.313 350.695 428.317L351.347 428.965C349.738 429.964 348.057 430.986 346.351 432ZM356.257 425.841L355.585 425.205C357.231 424.132 358.841 423.052 360.37 421.998L361.064 422.618C359.529 423.678 357.911 424.763 356.257 425.841ZM365.748 419.282L365.027 418.68C366.598 417.522 368.113 416.364 369.53 415.236L370.279 415.816C368.853 416.951 367.328 418.118 365.748 419.282ZM374.62 412.198L373.837 411.645C375.28 410.383 376.645 409.118 377.894 407.887L378.717 408.403C377.455 409.646 376.077 410.923 374.62 412.198ZM382.49 404.399L381.62 403.934C382.844 402.526 383.948 401.12 384.902 399.755L385.825 400.153C384.855 401.541 383.733 402.97 382.49 404.399ZM388.542 395.632L387.563 395.33C388.326 393.816 388.924 392.255 389.35 390.663L390.38 390.829C389.943 392.468 389.328 394.074 388.542 395.632ZM389.947 385.837C389.917 384.23 389.632 382.633 389.101 381.081L390.117 380.865C390.671 382.483 390.967 384.149 391 385.823L389.947 385.837ZM386.799 376.618C385.799 375.201 384.625 373.863 383.296 372.624L384.102 372.094C385.477 373.374 386.689 374.757 387.722 376.222L386.799 376.618ZM378.946 369.136C377.382 368.054 375.743 367.039 374.038 366.099L374.645 365.424C376.382 366.382 378.051 367.415 379.644 368.517L378.946 369.136ZM368.763 363.438C367.041 362.643 365.184 361.851 363.244 361.081L363.717 360.343C365.679 361.12 367.555 361.922 369.297 362.726L368.763 363.438ZM357.555 358.968C355.722 358.329 353.771 357.686 351.754 357.055L352.144 356.287C354.173 356.922 356.137 357.569 357.983 358.212L357.555 358.968ZM345.852 355.299C343.977 354.764 341.972 354.216 339.894 353.669L340.228 352.886C342.314 353.435 344.328 353.985 346.211 354.521L345.852 355.299ZM333.889 352.138C332.055 351.684 330.08 351.205 327.852 350.675L328.157 349.884C330.389 350.415 332.367 350.894 334.206 351.349L333.889 352.138ZM321.796 349.247C319.666 348.747 317.636 348.27 315.735 347.81L316.045 347.019C317.943 347.479 319.97 347.956 322.097 348.455L321.796 349.247ZM309.699 346.277C307.674 345.752 305.694 345.126 303.77 344.403L304.244 343.664C306.125 344.371 308.063 344.983 310.043 345.495L309.699 346.277ZM301.751 340.858L301 340.278C301.959 339.513 303.858 338.763 306.803 337.988L307.137 338.772C304.391 339.494 302.579 340.197 301.751 340.858ZM313.158 337.425L312.904 336.622C314.725 336.266 316.799 335.894 319.068 335.515L319.287 336.324C317.029 336.701 314.967 337.071 313.158 337.425ZM325.458 335.351L325.261 334.538C327.2 334.247 329.289 333.946 331.47 333.642L331.653 334.456C329.477 334.759 327.393 335.06 325.458 335.351ZM337.862 333.616L337.689 332.801C339.672 332.54 341.748 332.273 343.915 332L344.082 332.816C341.916 333.089 339.843 333.356 337.862 333.616Z" fill="white"/>
<path d="M317.147 330L317 329.315C317.936 329.211 318.887 329.106 319.855 329L320 329.685C319.032 329.791 318.081 329.896 317.147 330Z" fill="white"/>
<path d="M526.898 193.386L530.719 189.026C527.033 189.446 525.984 191.545 525.719 193.083C522.651 192.635 519.926 194.684 519.926 194.684L529.933 195.722C529.192 194.692 528.139 193.882 526.898 193.386Z" fill="#FFE01B"/>
<path d="M524.115 172.31L527.936 167.95C524.249 168.371 523.201 170.469 522.935 172.007C519.868 171.559 517.142 173.609 517.142 173.609L527.15 174.647C526.409 173.617 525.356 172.806 524.115 172.31Z" fill="#FFE01B"/>
<path d="M492.59 192.268L497 189.045C493.574 188.7 492.166 190.407 491.59 191.758C488.914 190.743 486 192.073 486 192.073L494.824 195C494.378 193.914 493.604 192.966 492.59 192.268Z" fill="#FFE01B"/>
<path d="M454.387 187.78C448.116 177.517 435.71 177.039 435.71 177.039C435.71 177.039 423.621 175.542 415.866 191.171C408.638 205.739 398.662 219.805 414.26 223.215L417.078 214.722L418.822 223.848C421.043 224.002 423.272 224.039 425.496 223.958C442.2 223.435 458.108 224.111 457.596 218.305C456.915 210.587 460.42 197.654 454.387 187.78Z" fill="#2F2E41"/>
<path d="M432 206.247C432 206.247 439.959 217.395 435.184 226.419C430.408 235.444 446.327 245 446.327 245L458 219.518C458 219.518 444.204 210.494 447.919 202L432 206.247Z" fill="#FBBEBE"/>
<path d="M437 211C444.731 211 451 204.956 451 197.5C451 190.044 444.731 184 437 184C429.268 184 423 190.044 423 197.5C423 204.956 429.268 211 437 211Z" fill="#FBBEBE"/>
<path d="M388 213.542L399.729 198.749C399.729 198.749 403.859 183.243 409.841 184.029C415.822 184.815 407.478 202.625 407.478 202.625L395.824 219L388 213.542Z" fill="#FBBEBE"/>
<path d="M448 408.568L451.818 427.91L460 430L457.819 407L448 408.568Z" fill="#FBBEBE"/>
<path d="M530 388.16L544.362 407.4L550.213 410L555 402.2L540.638 384L530 388.16Z" fill="#FBBEBE"/>
<path d="M444.346 236.701L435.343 225.337C435.343 225.337 417.899 228.421 416.28 229.973C414.661 231.526 420.598 259.991 420.598 259.991C420.598 259.991 421.677 267.754 426.534 271.895L431.392 275L471.333 267.236L472.834 250.196C473.382 243.99 472.571 237.741 470.452 231.853C468.335 225.964 464.958 220.565 460.538 216L453.589 216.911L444.346 236.701Z" fill="#575A89"/>
<path d="M418.735 231.065L416.013 230.016L403.495 228.968C403.495 228.968 399.141 227.92 400.229 225.823C401.318 223.726 402.407 223.202 400.229 222.678C398.053 222.153 397.508 221.629 398.053 220.057C398.596 218.484 401.862 215.339 401.862 215.339L392.609 208C392.609 208 392.109 208.341 391.299 208.972C386.706 212.555 372.17 225.479 382.813 238.403C395.331 253.605 410.026 262.516 422 259.371L418.735 231.065Z" fill="#575A89"/>
<path d="M430.579 272.261V279.626C430.579 279.626 425.708 288.569 427.331 296.986C428.955 305.403 429.497 309.611 429.497 309.611C429.673 316.77 430.95 323.862 433.285 330.653C437.074 341.175 424.625 410.088 440.322 411.141C456.018 412.193 464.678 413.245 469.549 407.985C474.42 402.724 461.43 312.241 461.43 312.241C461.43 312.241 505.813 402.198 515.014 398.515C524.215 394.833 547.489 386.416 544.783 381.682C542.076 376.947 473.879 271.735 473.879 271.735L471.713 267L430.579 272.261Z" fill="#2F2E41"/>
<path d="M456.531 424.042C456.531 424.042 447.906 423.522 447.906 426.123C447.906 428.723 443.594 437.565 443.594 437.565C443.594 437.565 440.36 447.967 448.984 446.927C457.61 445.887 463 436.525 463 436.525L460.843 426.643L456.531 424.042Z" fill="#2F2E41"/>
<path d="M547.037 406.104C547.037 406.104 539.488 401.533 540.028 404.58C540.566 407.627 541.106 415.753 544.881 416.261C548.655 416.769 559.98 419.816 560.518 420.832C561.058 421.848 574 425.911 574 419.309C574 412.706 565.911 407.627 565.911 407.627L556.744 401.025C556.744 401.025 550.812 400.517 549.734 404.072C548.655 407.627 547.037 406.104 547.037 406.104Z" fill="#2F2E41"/>
<path d="M437 185C441.971 185 446 181.195 446 176.5C446 171.806 441.971 168 437 168C432.03 168 428 171.806 428 176.5C428 181.195 432.03 185 437 185Z" fill="#2F2E41"/>
<path d="M451.421 186.387L439.264 180L422.474 182.613L419 198L427.647 197.667L430.063 192.014V197.573L434.053 197.42L436.368 188.42L437.816 198L452 197.71L451.421 186.387Z" fill="#2F2E41"/>
<path d="M451 273.732L431.635 274.243C431.635 274.243 415.11 277.385 416.038 270.868C416.964 264.351 433.085 266.63 433.085 266.63L450.731 264L451 273.732Z" fill="#FBBEBE"/>
<path d="M465.957 215.043C466.902 214.906 467.867 215.097 468.678 215.582C469.49 216.068 470.095 216.815 470.383 217.691C474.063 228.834 485.403 266.122 474.137 271.238C460.867 277.264 451.183 276.998 451.183 276.998L446 264.739L450.719 260.484L455.756 229.367L458.17 216.177L465.957 215.043Z" fill="#575A89"/>
<path opacity="0.4" d="M462 236L459.847 256.363L441 264L462 259.418V236Z" fill="black"/>
<path d="M158.123 444L157.542 443.789C157.414 443.742 144.703 439.02 138.749 428.314C132.794 417.607 135.71 404.716 135.74 404.587L135.877 404L136.458 404.211C136.586 404.258 149.297 408.98 155.251 419.686C161.206 430.393 158.29 443.284 158.26 443.413L158.123 444ZM139.702 427.815C144.736 436.868 154.781 441.508 157.326 442.568C157.81 439.923 159.327 429.228 154.298 420.184C149.269 411.141 139.22 406.494 136.674 405.432C136.19 408.078 134.673 418.772 139.702 427.815Z" fill="#3F3D56"/>
<path d="M143.083 424.292C153.852 430.423 158 442.602 158 442.602C158 442.602 144.687 444.839 133.917 438.708C123.148 432.577 119 420.398 119 420.398C119 420.398 132.313 418.161 143.083 424.292Z" fill="#FFE01B"/>
<path d="M154 361C157.314 361 160 358.314 160 355C160 351.686 157.314 349 154 349C150.686 349 148 351.686 148 355C148 358.314 150.686 361 154 361Z" fill="#FFE01B"/>
<path d="M155.741 444C155.635 443.819 153.144 439.461 152.28 430.412C151.487 422.11 151.997 408.117 158.926 388.597C172.053 351.618 155.901 321.781 155.736 321.484L156.533 321C156.574 321.075 160.742 328.682 163.204 340.796C166.458 356.856 165.273 373.553 159.789 388.933C146.685 425.849 156.427 443.325 156.527 443.497L155.741 444Z" fill="#2F2E41"/>
<path d="M150.5 320C149.214 320 147.958 319.59 146.889 318.82C145.82 318.051 144.987 316.958 144.495 315.679C144.003 314.4 143.874 312.992 144.125 311.634C144.376 310.276 144.995 309.029 145.904 308.05C146.813 307.071 147.971 306.404 149.232 306.134C150.493 305.865 151.8 306.003 152.987 306.533C154.175 307.063 155.19 307.96 155.905 309.111C156.619 310.262 157 311.615 157 313C156.998 314.856 156.313 316.635 155.094 317.948C153.875 319.26 152.223 319.998 150.5 320ZM150.5 306.999C149.398 306.999 148.321 307.352 147.405 308.011C146.488 308.67 145.774 309.607 145.353 310.704C144.931 311.8 144.821 313.006 145.036 314.17C145.251 315.334 145.781 316.404 146.56 317.242C147.34 318.082 148.332 318.653 149.413 318.885C150.494 319.116 151.614 318.997 152.632 318.544C153.65 318.089 154.52 317.32 155.132 316.333C155.745 315.347 156.071 314.187 156.071 313C156.07 311.409 155.482 309.884 154.438 308.76C153.393 307.635 151.977 307.001 150.5 306.999Z" fill="#CFCCE0"/>
<path d="M170 342C173.314 342 176 339.314 176 336C176 332.686 173.314 330 170 330C166.686 330 164 332.686 164 336C164 339.314 166.686 342 170 342Z" fill="#CFCCE0"/>
<path d="M172.5 371C171.214 371 169.958 370.619 168.889 369.904C167.82 369.191 166.987 368.175 166.495 366.988C166.003 365.8 165.874 364.493 166.125 363.232C166.376 361.971 166.995 360.813 167.904 359.904C168.813 358.995 169.971 358.375 171.232 358.125C172.493 357.874 173.8 358.003 174.987 358.495C176.175 358.986 177.19 359.82 177.904 360.889C178.619 361.957 179 363.214 179 364.5C178.998 366.223 178.313 367.875 177.094 369.094C175.876 370.313 174.223 370.998 172.5 371ZM172.5 358.929C171.398 358.929 170.321 359.255 169.405 359.867C168.488 360.479 167.774 361.349 167.353 362.368C166.931 363.385 166.821 364.507 167.036 365.586C167.251 366.668 167.781 367.661 168.56 368.439C169.34 369.219 170.332 369.749 171.413 369.965C172.494 370.179 173.614 370.069 174.632 369.648C175.65 369.225 176.52 368.512 177.133 367.595C177.745 366.679 178.072 365.602 178.072 364.5C178.07 363.023 177.482 361.607 176.438 360.562C175.394 359.517 173.977 358.93 172.5 358.929Z" fill="#CFCCE0"/>
<path d="M152 391C155.314 391 158 388.09 158 384.501C158 380.91 155.314 378 152 378C148.686 378 146 380.91 146 384.501C146 388.09 148.686 391 152 391Z" fill="#CFCCE0"/>
<path d="M159.889 444C159.889 444 154.333 428.572 171 417L159.889 444Z" fill="#2F2E41"/>
<path d="M152 444C152 444 149.254 426.854 128 427.001L152 444Z" fill="#2F2E41"/>
<path d="M493.16 155.619L497.982 152.263C494.298 151.827 492.744 153.623 492.094 155.055C489.232 153.918 486.063 155.283 486.063 155.283L495.509 158.58C495.052 157.412 494.238 156.384 493.16 155.619Z" fill="#FFE01B"/>
<path d="M525.189 129.813L530 126.053C526.263 125.65 524.727 127.642 524.099 129.218C521.179 128.033 518 129.586 518 129.586L527.626 133C527.14 131.733 526.295 130.627 525.189 129.813Z" fill="#FFE01B"/>
<path d="M484.048 255.08C484.894 254.882 485.777 255.055 486.504 255.56C487.231 256.065 487.743 256.861 487.926 257.773C488.109 258.685 487.949 259.637 487.48 260.421C487.012 261.206 486.274 261.757 485.428 261.955C483.668 262.366 479 259.857 479 259.857C479 259.857 482.287 255.491 484.048 255.08Z" fill="#FFE01B"/>
<path d="M167.247 303.36C167.799 302.591 168.592 302.107 169.451 302.016C170.31 301.925 171.165 302.233 171.829 302.874C172.491 303.515 172.908 304.436 172.987 305.433C173.065 306.43 172.799 307.423 172.247 308.193C171.097 309.795 166 311 166 311C166 311 166.097 304.963 167.247 303.36Z" fill="#FFE01B"/>
<path d="M137.188 322.778C137.385 321.969 137.711 321.375 138.095 321.127C138.479 320.879 138.89 320.997 139.237 321.455C139.584 321.913 139.839 322.673 139.945 323.569C140.052 324.465 140.002 325.423 139.806 326.233C139.396 327.919 137.164 330 137.164 330C137.164 330 136.779 324.464 137.188 322.778Z" fill="#FFE01B"/>
<path d="M581 448L69.4942 447H0H572.824L581 448Z" fill="#3F3D56"/>
<defs>
<filter id="filter0_i" x="210.861" y="328.604" width="212.254" height="122.55" filterUnits="userSpaceOnUse" color-interpolation-filters="sRGB">
<feFlood flood-opacity="0" result="BackgroundImageFix"/>
<feBlend mode="normal" in="SourceGraphic" in2="BackgroundImageFix" result="shape"/>
<feColorMatrix in="SourceAlpha" type="matrix" values="0 0 0 0 0 0 0 0 0 0 0 0 0 0 0 0 0 0 127 0" result="hardAlpha"/>
<feOffset dy="4"/>
<feGaussianBlur stdDeviation="2"/>
<feComposite in2="hardAlpha" operator="arithmetic" k2="-1" k3="1"/>
<feColorMatrix type="matrix" values="0 0 0 0 0 0 0 0 0 0 0 0 0 0 0 0 0 0 0.25 0"/>
<feBlend mode="normal" in2="shape" result="effect1_innerShadow"/>
</filter>
</defs>
</svg>
