<svg width="267" height="307" viewBox="0 0 267 307" fill="none" xmlns="http://www.w3.org/2000/svg">
<g clip-path="url(#clip0)">
<path d="M9.06109 247.617C14.0654 247.617 18.1222 243.855 18.1222 239.214C18.1222 234.572 14.0654 230.81 9.06109 230.81C4.05679 230.81 0 234.572 0 239.214C0 243.855 4.05679 247.617 9.06109 247.617Z" fill="#3F3D56"/>
<path d="M190.971 293.177C259.24 261.236 286.588 184.153 252.056 121.007L4.83258 236.676C39.3652 299.822 122.702 325.118 190.971 293.177Z" fill="#FFE01B"/>
<path d="M196.725 54.6797C197.21 54.3975 197.68 54.096 198.136 53.781C197.185 56.2175 195.653 58.4581 193.637 60.3605V60.3605C193.165 60.8052 192.662 61.2215 192.144 61.6241C192.134 61.5221 192.123 61.4201 192.117 61.3182C192.056 60.3314 192.14 59.293 192.156 58.2767C193.953 57.3604 195.508 56.1357 196.725 54.6797V54.6797Z" fill="url(#paint0_linear)"/>
<path d="M203.293 17.5922C204.325 15.9733 204.92 14.1457 205.028 12.266C205.135 10.3862 204.751 8.51027 203.909 6.79877C203.066 5.08727 201.791 3.5912 200.191 2.43865C198.591 1.28611 196.715 0.511429 194.723 0.180938C192.732 -0.149554 190.683 -0.0260151 188.754 0.540991C186.825 1.108 185.072 2.10158 183.646 3.43665C182.22 4.77172 181.162 6.40851 180.564 8.20687C179.967 10.0052 179.846 11.9116 180.213 13.7627C176.634 15.3488 173.638 17.8844 171.604 21.0505C169.569 24.2166 168.586 27.8718 168.778 31.5564C167.068 33.9988 165.995 36.7789 165.643 39.6754C165.291 42.5719 165.671 45.5047 166.753 48.2406C167.834 50.9764 169.587 53.4395 171.871 55.434C174.156 57.4284 176.91 58.8991 179.913 59.7289C182.917 60.5587 186.087 60.7246 189.171 60.2136C192.256 59.7026 195.169 58.5287 197.68 56.7854C200.191 55.0421 202.23 52.7774 203.634 50.1718C205.039 47.5661 205.77 44.6914 205.77 41.7765C205.77 41.4779 205.76 41.1814 205.745 40.8863C208.242 37.3219 209.359 33.0728 208.913 28.8387C208.467 24.6047 206.485 20.6381 203.293 17.5922Z" fill="#2F2E41"/>
<g opacity="0.1">
<path opacity="0.1" d="M179.612 17.4601C179.668 17.4345 179.722 17.4051 179.779 17.3799C179.739 17.1776 179.711 16.9719 179.682 16.7666C179.676 16.8095 179.668 16.8516 179.662 16.8947C179.637 17.0841 179.627 17.2719 179.612 17.4601Z" fill="black"/>
<path opacity="0.1" d="M208.612 36.5844C208.243 39.4406 207.169 42.1795 205.473 44.5881C205.488 44.8841 205.498 45.1815 205.498 45.4811C205.498 50.3319 203.476 54.9949 199.853 58.4937C196.23 61.9924 191.288 64.0557 186.061 64.2513C180.835 64.447 175.73 62.7599 171.815 59.5434C167.899 56.3268 165.478 51.8302 165.057 46.9951C165.013 47.5009 164.986 48.011 164.986 48.5273C164.986 53.5096 167.12 58.2878 170.918 61.8107C174.717 65.3337 179.869 67.3129 185.242 67.3129C190.614 67.3129 195.766 65.3337 199.565 61.8107C203.364 58.2878 205.498 53.5096 205.498 48.5273C205.498 48.2278 205.488 47.9304 205.473 47.6343C207.929 44.1438 209.06 39.9931 208.685 35.8396C208.664 36.0875 208.644 36.3352 208.612 36.5844Z" fill="black"/>
<path opacity="0.1" d="M204.667 16.7539C204.448 18.3328 203.883 19.8532 203.005 21.2213C203.359 21.5587 203.694 21.9122 204.02 22.2728C204.71 20.508 204.932 18.615 204.667 16.7539H204.667Z" fill="black"/>
</g>
<path d="M120.891 219.08C120.988 220.173 121.303 221.239 121.818 222.223C122.08 222.713 122.462 223.137 122.932 223.461C123.402 223.785 123.947 224 124.522 224.087C125.579 224.094 126.616 223.811 127.506 223.273C129.322 222.38 131.207 221.341 132.155 219.631C133.072 217.975 132.94 215.998 132.785 214.136L131.566 199.488C128.628 199.411 125.676 199.413 122.741 199.563C119.834 199.713 119.323 200.357 119.728 203.031C120.533 208.351 120.141 213.755 120.891 219.08Z" fill="#FBBEBE"/>
<path d="M207.421 229.124L214.316 239.552C214.612 240.158 215.15 240.632 215.815 240.871C216.31 240.938 216.814 240.856 217.255 240.637C219.555 239.696 221.315 237.91 223.003 236.173C224.149 234.994 225.333 233.75 225.763 232.208C225.986 231.372 225.976 230.496 225.735 229.664C225.494 228.832 225.029 228.072 224.386 227.456C223.581 226.8 222.71 226.217 221.787 225.717C216.337 222.276 213.877 215.738 208.497 212.202C208.187 211.96 207.808 211.808 207.407 211.763C207.007 211.785 206.621 211.906 206.288 212.114C203.836 213.372 201.385 214.63 198.933 215.888C195.748 217.519 196.758 217.711 199.176 219.468C202.739 222.056 204.964 225.674 207.421 229.124Z" fill="#FBBEBE"/>
<path d="M136.563 211.005C135.567 210.705 134.451 210.434 133.511 210.871C133.072 211.128 132.701 211.478 132.425 211.893C132.149 212.309 131.977 212.78 131.921 213.269C131.732 214.234 131.755 215.236 131.474 216.181C131.002 217.775 129.732 219.02 128.508 220.192C128.014 220.756 127.371 221.184 126.646 221.431C125.665 221.671 124.622 221.232 123.625 221.399C123.044 221.542 122.515 221.833 122.095 222.243C121.675 222.652 121.38 223.163 121.242 223.721C120.983 224.84 120.943 225.996 121.125 227.128L121.897 235.192C122.034 236.175 122.044 237.17 121.929 238.155C121.644 239.928 120.567 241.484 119.969 243.184C119.371 244.884 119.404 247.054 120.901 248.136C121.423 248.469 122.025 248.671 122.65 248.723C123.276 248.776 123.905 248.678 124.48 248.437C125.626 247.943 126.64 247.207 127.446 246.284C132.026 241.509 134.071 235.04 137.634 229.527C138.543 228.252 139.357 226.917 140.068 225.532C140.557 224.461 140.868 223.325 141.264 222.22C141.81 220.743 142.466 219.305 143.225 217.917C143.649 217.123 145.271 215.211 144.931 214.324C144.349 212.811 138.106 211.47 136.563 211.005Z" fill="#2F2E41"/>
<path d="M220.889 232.948C219.856 234.784 218.132 236.184 216.059 236.87C215.457 237.024 214.897 237.299 214.417 237.675C214.101 238.04 213.906 238.485 213.855 238.954C213.804 239.423 213.899 239.896 214.13 240.314C214.604 241.141 215.222 241.888 215.956 242.523C220.078 246.656 222.805 251.86 223.785 257.47C224.03 258.886 224.189 260.39 225.083 261.548C226.83 263.808 230.548 263.66 233.173 262.372C233.975 262.024 234.671 261.489 235.197 260.817C235.634 260.09 235.913 259.285 236.015 258.453C236.489 256.391 236.751 254.29 236.796 252.18C236.746 248.198 235.166 244.391 234.412 240.472C233.342 234.911 233.878 228.922 231.145 223.897C230.873 223.307 230.442 222.795 229.897 222.411C229.213 222.07 228.446 221.907 227.674 221.938C225.204 221.842 222.733 221.822 220.261 221.876C219.568 221.892 218.758 221.974 218.399 222.536C218.032 223.11 218.353 223.843 218.675 224.441C220.205 227.278 222.685 229.545 220.889 232.948Z" fill="#2F2E41"/>
<path d="M160.986 133.814C160.28 134.352 159.802 135.103 159.635 135.934C159.468 136.766 159.622 137.625 160.072 138.362C160.631 139.219 161.635 140.017 161.415 140.997C161.187 142.014 159.834 142.359 158.724 142.523C148.942 143.961 139.422 146.608 129.938 149.248L119.989 152.017C117.121 152.815 114.202 153.635 111.723 155.191C109.449 156.623 107.649 158.611 106.524 160.933C105.387 163.29 104.996 165.887 104.59 168.44C103.095 177.838 101.188 187.329 96.6516 195.852L120.781 203.166C123.12 203.96 125.543 204.524 128.01 204.848C130.362 205.028 132.73 204.923 135.052 204.533C134.902 199.552 134.811 194.422 134.661 189.441C134.645 187.868 134.535 186.297 134.33 184.735C133.968 182.348 133.167 180.026 132.917 177.627C134.03 176.779 135.648 176.99 137.091 177.028C140.382 177.117 143.596 176.059 146.523 174.665C149.45 173.271 152.173 171.533 155.084 170.11C159.934 167.739 165.45 166.144 169.152 162.401C167.266 169.046 162.811 174.836 161.949 181.658C161.078 188.552 164.113 195.298 167.084 201.672L176.577 222.037C177.625 224.285 179.021 226.813 181.605 227.349C183.215 227.683 184.876 227.125 186.37 226.478C195.107 222.695 202.097 215.584 211.425 213.31C210.73 209.04 207.08 205.509 205.013 201.637C203.269 198.371 202.7 194.693 201.538 191.213C200.377 187.732 198.38 184.206 194.87 182.552C193.204 181.766 190.958 181.083 190.803 179.359C190.792 178.806 190.919 178.257 191.174 177.756C192.424 174.849 194.364 172.238 196.852 170.116C197.172 169.888 197.428 169.591 197.598 169.252C197.69 168.917 197.709 168.567 197.654 168.224C197.478 165.452 199.084 162.858 200.875 160.628C202.667 158.399 204.738 156.276 205.748 153.66C207.485 149.163 205.761 144.22 204.044 139.715C203.35 137.895 202.619 136.018 201.194 134.608C198.958 132.396 195.476 131.759 192.221 131.429C181.698 130.363 169.348 127.813 160.986 133.814Z" fill="#2F2E41"/>
<g opacity="0.1">
<path opacity="0.1" d="M159.932 134.935C160.285 134.868 160.612 134.715 160.879 134.491C161.146 134.268 161.344 133.982 161.451 133.663C161.478 133.538 161.487 133.411 161.476 133.284C161.325 133.385 161.172 133.483 161.024 133.59C160.542 133.945 160.166 134.407 159.932 134.935Z" fill="black"/>
</g>
<path d="M177.277 63.0023C177.403 65.2735 176.677 67.7043 174.828 69.1616C174.235 69.6291 173.546 69.9834 172.976 70.4753C172.468 70.9672 172.081 71.5575 171.84 72.2052C171.599 72.8529 171.51 73.5424 171.58 74.2258C171.649 74.9092 171.876 75.5701 172.243 76.1624C172.611 76.7548 173.11 77.2644 173.708 77.6559C175.627 78.7622 178.068 78.4637 180.284 78.1007C183.239 77.7106 186.136 76.9967 188.916 75.9735C191.712 74.9362 194.092 73.0952 195.719 70.7107C193.307 69.4403 191.993 66.7718 191.846 64.1668C191.7 61.5582 192.457 58.598 190.708 56.5744C189.023 54.6257 185.853 54.6399 183.285 55.3089C181.997 55.6446 180.749 56.109 179.458 56.4375C178.804 56.604 176.644 56.6084 176.217 57.0632C175.44 57.8902 177.204 61.6882 177.277 63.0023Z" fill="#FBBEBE"/>
<path opacity="0.1" d="M177.277 63.0023C177.403 65.2735 176.677 67.7043 174.828 69.1616C174.235 69.6291 173.546 69.9834 172.976 70.4753C172.468 70.9672 172.081 71.5575 171.84 72.2052C171.599 72.8529 171.51 73.5424 171.58 74.2258C171.649 74.9092 171.876 75.5701 172.243 76.1624C172.611 76.7548 173.11 77.2644 173.708 77.6559C175.627 78.7622 178.068 78.4637 180.284 78.1007C183.239 77.7106 186.136 76.9967 188.916 75.9735C191.712 74.9362 194.092 73.0952 195.719 70.7107C193.307 69.4403 191.993 66.7718 191.846 64.1668C191.7 61.5582 192.457 58.598 190.708 56.5744C189.023 54.6257 185.853 54.6399 183.285 55.3089C181.997 55.6446 180.749 56.109 179.458 56.4375C178.804 56.604 176.644 56.6084 176.217 57.0632C175.44 57.8902 177.204 61.6882 177.277 63.0023Z" fill="black"/>
<path d="M184.846 62.7445C192.853 62.7445 199.344 56.9757 199.344 49.8595C199.344 42.7433 192.853 36.9745 184.846 36.9745C176.839 36.9745 170.348 42.7433 170.348 49.8595C170.348 56.9757 176.839 62.7445 184.846 62.7445Z" fill="#FBBEBE"/>
<path d="M139.807 151.2C139.548 152.23 139.088 153.211 138.449 154.096C136.767 156.798 136.16 159.939 136.727 162.997C137.032 164.513 137.744 165.938 138.802 167.147C139.859 168.355 141.229 169.31 142.791 169.927C144.142 170.408 145.815 170.534 146.928 169.693C145.001 167.426 144.899 164.332 145.014 161.474C144.981 160.941 145.121 160.41 145.419 159.949C145.498 159.839 145.601 159.745 145.722 159.672C145.843 159.6 145.979 159.551 146.122 159.528C146.264 159.505 146.411 159.509 146.552 159.539C146.693 159.569 146.826 159.626 146.942 159.704C146.893 161.503 147.277 163.29 148.069 164.941C148.374 165.577 148.895 166.278 149.661 166.26C150.759 166.234 151.056 164.889 151.014 163.896C150.845 159.851 150.625 155.638 148.469 152.09C147.679 150.792 146.627 149.572 146.327 148.116C146.312 147.61 146.119 147.123 145.775 146.724C145.537 146.556 145.26 146.439 144.964 146.383C143.722 146.065 140.782 145.077 139.757 146.129C138.658 147.257 140.006 149.851 139.807 151.2Z" fill="#FBBEBE"/>
<path d="M160.942 80.6859C159.306 80.5143 158.014 81.9107 157.117 83.1986C153.777 88.0008 151.373 93.3153 150.016 98.8971C149.325 101.746 148.891 104.705 147.44 107.294C147.091 107.832 146.809 108.405 146.602 109.003C146.478 109.916 146.434 110.837 146.471 111.756C146.32 113.419 145.267 114.896 144.913 116.531C144.702 117.506 144.745 118.515 144.557 119.494C144.229 121.208 143.218 122.733 142.572 124.367C141.434 127.243 141.444 130.402 140.607 133.367C140.504 133.856 140.278 134.314 139.946 134.704C139.378 135.286 138.47 135.428 137.728 135.8C137.143 136.134 136.642 136.58 136.258 137.109C135.874 137.638 135.615 138.237 135.5 138.867C135.278 140.126 135.253 141.409 135.424 142.675L136.08 150.544C136.756 150.28 137.197 149.567 137.761 149.13C138.793 148.33 140.308 148.509 141.628 148.732L143.551 149.057C145.518 149.39 147.657 149.813 148.919 151.259C149.922 149.797 149.348 147.642 150.89 146.67C151.391 146.353 152.011 146.246 152.54 145.971C153.038 145.671 153.45 145.263 153.742 144.782C154.035 144.302 154.198 143.762 154.219 143.21C154.25 142.106 154.086 141.005 153.736 139.95C156.207 138.978 157.739 136.646 158.705 134.314C159.768 131.491 160.538 128.58 161.002 125.619C163.234 113.925 165.274 102.146 165.476 90.2691C165.617 88.2824 165.382 86.288 164.782 84.3773C164.078 82.5021 163.06 80.908 160.942 80.6859Z" fill="#D0CDE1"/>
<path d="M197.263 68.3467C194.878 70.6212 191.83 72.231 188.476 72.9876C185.14 73.7338 181.733 74.1902 178.302 74.3506C177.247 74.5114 176.164 74.4263 175.155 74.1035C174.185 73.7038 173.448 72.6592 173.843 71.7597C174.034 71.4814 174.163 71.1717 174.222 70.8482C174.206 70.0479 172.911 69.9816 172.07 70.2181C166.509 71.7823 161.175 74.8799 158.609 79.6314C157.159 82.3155 156.68 85.3337 156.221 88.2948C155.012 96.0828 153.806 104.04 155.427 111.766C156.291 115.886 157.953 119.902 158.057 124.095C158.115 126.444 157.679 128.785 157.699 131.135C157.622 131.958 157.865 132.78 158.384 133.458C158.784 133.88 159.387 134.147 159.667 134.644C160.133 135.474 159.509 136.614 160.124 137.361C160.88 138.28 162.46 137.62 163.502 136.971C168.744 133.734 175.076 132.285 181.378 132.879C188.95 133.618 196.473 137.287 203.817 135.453C203.438 134.952 203.112 134.42 202.842 133.864C199.18 122.922 199.428 110.691 204.908 100.396C206.78 96.879 209.265 93.5272 209.982 89.6746C210.271 87.8726 210.294 86.0435 210.05 84.2359C209.664 80.7384 208.748 77.212 206.658 74.2552C204.568 71.2984 201.109 68.693 197.263 68.3467Z" fill="#D0CDE1"/>
<path d="M162.671 154.306C162.131 155.759 161.871 157.303 161.907 158.855C161.857 160.338 161.93 161.824 162.126 163.295C162.239 164.553 162.685 165.758 163.416 166.783C163.791 167.288 164.306 167.67 164.896 167.881C165.486 168.092 166.125 168.123 166.732 167.969C167.21 167.77 167.637 167.465 167.983 167.078C168.329 166.691 168.585 166.231 168.732 165.732C169.018 164.733 169.227 163.715 169.359 162.685C169.942 159.652 171.524 156.805 171.552 153.716C171.574 153.349 171.516 152.983 171.383 152.641C170.807 151.371 167.987 149.946 166.609 150.16C164.885 150.428 163.297 152.84 162.671 154.306Z" fill="#FBBEBE"/>
<path opacity="0.1" d="M203.163 79.5511C202.881 82.1668 205.615 84.1383 206.696 86.5691C207.137 87.7039 207.389 88.8947 207.441 90.1C208.201 98.4635 207.611 106.876 207.021 115.251C206.913 118.04 206.54 120.814 205.904 123.541C204.379 129.264 200.626 134.225 196.949 139.038C195.685 140.968 193.752 142.443 191.466 143.224L178.848 148.883C177.266 149.529 175.764 150.329 174.365 151.269C172.742 152.447 171.466 153.985 170.655 155.741C168.207 154.583 165.665 153.543 163.217 152.385C162.644 152.114 162.004 151.76 161.905 151.172C161.772 150.382 162.664 149.824 163.277 149.262C164.425 148.211 164.779 146.652 165.401 145.272C167.432 140.764 172.539 137.879 174.381 133.302C175.089 131.543 175.306 129.555 176.561 128.081C177.28 127.342 178.087 126.682 178.969 126.114C180.914 124.585 182.701 122.892 184.306 121.056C185.027 120.363 185.617 119.564 186.052 118.69C186.603 117.391 186.438 115.942 186.467 114.547C186.561 109.979 188.792 105.718 190.158 101.327C191.444 97.1926 191.981 92.8552 193.669 88.8459C195.356 84.8365 198.663 80.629 203.163 79.5511Z" fill="black"/>
<path d="M205.579 79.5511C205.298 82.1668 208.031 84.1383 209.112 86.5691C209.554 87.7039 209.805 88.8947 209.858 90.1C210.617 98.4635 210.027 106.876 209.437 115.251C209.33 118.04 208.956 120.814 208.321 123.541C206.795 129.264 203.043 134.225 199.365 139.038C198.102 140.968 196.169 142.443 193.882 143.224L181.264 148.883C179.683 149.529 178.18 150.329 176.782 151.269C175.158 152.447 173.882 153.985 173.071 155.741C170.623 154.583 168.082 153.543 165.634 152.385C165.061 152.114 164.42 151.76 164.321 151.172C164.188 150.382 165.08 149.824 165.693 149.262C166.842 148.211 167.196 146.652 167.817 145.272C169.848 140.764 174.955 137.879 176.798 133.302C177.506 131.543 177.722 129.555 178.978 128.081C179.696 127.342 180.504 126.682 181.385 126.114C183.33 124.585 185.117 122.892 186.722 121.056C187.443 120.363 188.033 119.564 188.468 118.69C189.019 117.391 188.854 115.942 188.883 114.547C188.977 109.979 191.208 105.718 192.574 101.327C193.861 97.1926 194.398 92.8552 196.085 88.8459C197.773 84.8365 201.079 80.629 205.579 79.5511Z" fill="#D0CDE1"/>
<path d="M191.837 29.2715C187.315 28.7674 182.736 29.6319 178.805 31.732C179.385 31.7518 179.966 31.7878 180.552 31.8524C184.895 32.3307 188.964 34.0407 192.184 36.7412C195.404 39.4417 197.613 42.9963 198.5 46.9034C199.386 50.8105 198.904 54.8727 197.123 58.5168C195.342 62.161 192.351 65.203 188.573 67.2136C193.957 67.3927 199.208 65.6673 203.23 62.398C207.251 59.1286 209.732 54.5682 210.153 49.6699C210.575 44.7715 208.904 39.9141 205.491 36.1128C202.077 32.3114 197.185 29.8603 191.837 29.2715V29.2715Z" fill="#2F2E41"/>
<path d="M198.531 39.605C199.038 40.665 199.313 41.807 199.341 42.9655C199.37 44.1241 199.15 45.2764 198.696 46.3564C198.597 46.0772 198.483 45.8029 198.353 45.5345C195.773 40.2329 187.824 38.0384 180.599 40.633C176.342 42.1615 173.288 45.0113 172.023 48.1788C170.184 43.0538 173.92 37.1654 180.776 34.7035C188.001 32.1089 195.95 34.3034 198.531 39.605Z" fill="#2F2E41"/>
<g opacity="0.1">
<path opacity="0.1" d="M198.297 45.9821C197.973 42.3559 196.522 38.8947 194.119 36.0182C191.717 33.1416 188.466 30.9732 184.761 29.7759C182.875 30.2066 181.065 30.8869 179.388 31.7959C179.95 31.8153 180.514 31.8509 181.082 31.9145C185.149 32.3706 188.971 33.9591 192.044 36.4705C195.117 38.9819 197.297 42.2982 198.297 45.9821V45.9821Z" fill="black"/>
<path opacity="0.1" d="M201.582 32.2738C201.258 28.6476 199.807 25.1864 197.404 22.3098C195.001 19.4333 191.751 17.2649 188.046 16.0676C186.16 16.4983 184.35 17.1786 182.673 18.0875C183.235 18.107 183.799 18.1425 184.367 18.2062C188.434 18.6622 192.255 20.2507 195.329 22.7621C198.402 25.2735 200.582 28.5899 201.582 32.2738V32.2738Z" fill="black"/>
<path opacity="0.1" d="M201.665 11.7986C201.47 9.61016 200.594 7.5213 199.144 5.78526C197.694 4.04922 195.732 2.74057 193.496 2.01797C192.358 2.27792 191.266 2.68848 190.254 3.23701C190.593 3.24878 190.933 3.27024 191.276 3.30865C193.73 3.58387 196.037 4.54254 197.892 6.0582C199.746 7.57387 201.062 9.57534 201.665 11.7986V11.7986Z" fill="black"/>
<path opacity="0.1" d="M209.241 43.4369C209.635 47.9418 208.266 52.4275 205.384 56.0723C202.502 59.7172 198.301 62.2772 193.55 63.2835C192.183 64.6604 190.603 65.8414 188.861 66.7877C192.002 66.8942 195.126 66.3213 197.987 65.1146C200.847 63.9078 203.366 62.1003 205.343 59.8349C207.32 57.5695 208.701 54.9085 209.378 52.0624C210.055 49.2163 210.008 46.2632 209.241 43.4368V43.4369Z" fill="black"/>
</g>
<path d="M146.186 163.584L143.769 90.7555" stroke="#FFE01B" stroke-width="2" stroke-miterlimit="10"/>
<path d="M143.769 100.839C149.774 100.839 154.643 96.0739 154.643 90.1953C154.643 84.3166 149.774 79.5511 143.769 79.5511C137.764 79.5511 132.896 84.3166 132.896 90.1953C132.896 96.0739 137.764 100.839 143.769 100.839Z" fill="#FFE01B"/>
<path d="M144.977 169.186C144.977 169.186 142.268 136.876 109.941 141.658Z" fill="#FFE01B"/>
</g>
<defs>
<linearGradient id="paint0_linear" x1="195.115" y1="61.6241" x2="195.115" y2="53.781" gradientUnits="userSpaceOnUse">
<stop stop-color="#808080" stop-opacity="0.25"/>
<stop offset="0.53514" stop-color="#808080" stop-opacity="0.12"/>
<stop offset="1" stop-color="#808080" stop-opacity="0.1"/>
</linearGradient>
<clipPath id="clip0">
<rect width="267" height="307" fill="white"/>
</clipPath>
</defs>
</svg>
