<svg width="802" height="446" viewBox="0 0 802 446" fill="none" xmlns="http://www.w3.org/2000/svg">
<g clip-path="url(#clip0)" filter="url(#filter0_i)">
<path d="M704.308 199.068L628.409 237.013L695.583 183.955C684.665 165.955 672.401 148.907 658.906 132.975L329.742 219.397L627.07 99.5905C613.483 86.9277 599.054 75.3104 583.894 64.8279L82.3252 150.166C29.0713 220.509 0.0410054 307.888 0 397.957H754.997C754.966 328.104 737.481 259.497 704.308 199.068V199.068Z" fill="#F2F2F2"/>
<path d="M542.844 40.1923C491.348 13.6618 434.793 -0.0857241 377.498 -2.90609e-05C260.89 -2.90609e-05 156.635 55.8522 87.3892 143.608C205.966 116.164 412.419 68.6561 542.844 40.1923Z" fill="#F2F2F2"/>
<path d="M755.002 396.355C755.002 408.738 646.059 446 511.671 446C377.284 446 268.341 408.738 268.341 396.355C268.341 383.973 377.284 401.16 511.671 401.16C646.059 401.16 755.002 383.973 755.002 396.355Z" fill="#3F3D56"/>
<path opacity="0.1" d="M755.002 396.355C755.002 408.738 646.059 446 511.671 446C377.284 446 268.341 408.738 268.341 396.355C268.341 383.973 377.284 401.16 511.671 401.16C646.059 401.16 755.002 383.973 755.002 396.355Z" fill="black"/>
<path d="M511.671 418.776C646.059 418.776 755.002 408.738 755.002 396.355C755.002 383.973 646.059 373.935 511.671 373.935C377.284 373.935 268.341 383.973 268.341 396.355C268.341 408.738 377.284 418.776 511.671 418.776Z" fill="#3F3D56"/>
<path d="M531.76 363.126V382.343L549.952 378.339L548.436 364.727L531.76 363.126Z" fill="#FFB8B8"/>
<path d="M596.192 366.329L646.981 375.136L634.094 395.154C634.094 395.154 598.467 382.343 589.37 382.343C580.274 382.343 596.192 366.329 596.192 366.329Z" fill="#FFB8B8"/>
<path d="M480.971 327.894C480.971 327.894 518.873 281.452 531.001 283.855C543.13 286.257 548.436 300.67 548.436 300.67L555.258 371.934C555.258 371.934 531.001 374.336 531.001 371.934C531.001 369.531 526.453 318.285 526.453 318.285C526.453 318.285 490.825 401.56 471.874 346.311L480.971 327.894Z" fill="#2F2E41"/>
<path d="M419.57 359.122C419.57 359.122 420.328 399.158 443.069 401.56C465.81 403.962 490.825 385.546 490.825 385.546L531.759 364.831C531.759 364.831 580.274 391.951 594.677 384.745C594.677 384.745 609.837 367.93 599.983 363.126C590.128 358.321 599.225 363.126 599.225 363.126L540.856 331.097C540.856 331.097 529.485 327.894 509.776 336.702C490.067 345.51 463.536 349.513 463.536 349.513L419.57 359.122Z" fill="#2F2E41"/>
<path d="M490.067 265.438L488.551 299.068C488.551 299.068 489.309 343.108 482.487 346.311C479.038 347.928 472.109 351.179 465.704 354.734C460.898 357.393 456.387 360.211 453.871 362.637C453.204 363.237 452.628 363.942 452.165 364.727C449.133 370.332 429.424 369.531 424.876 365.528C420.328 361.524 423.36 370.332 419.57 371.934C415.901 373.487 410.814 360.788 413.93 341.827C414.028 341.194 414.142 340.553 414.263 339.905C417.743 321.528 412.277 277.513 413.119 260.506C413.168 259.206 413.297 257.912 413.505 256.63C415.779 243.819 444.797 217.747 450.225 228.853C456.911 242.562 472.268 230.038 474.906 223.801C490.067 223 495.373 242.217 495.373 242.217L490.067 265.438Z" fill="#FFE01B"/>
<path d="M551.468 375.136C551.468 375.136 539.34 379.941 535.549 379.14C531.759 378.339 527.969 381.542 527.969 386.347C527.969 391.151 523.421 402.361 530.243 403.162C537.066 403.962 565.113 402.361 571.177 404.763C571.177 404.763 598.467 405.564 596.193 393.553C593.918 381.542 582.548 382.343 582.548 382.343C582.548 382.343 551.468 380.742 551.468 375.136Z" fill="#2F2E41"/>
<path d="M640.159 377.539C640.159 377.539 641.675 372.734 643.949 372.734C646.223 372.734 664.416 375.937 666.69 375.136C668.964 374.336 695.496 372.734 690.947 386.346C686.399 399.959 671.238 401.56 671.238 401.56C671.238 401.56 643.949 398.357 640.159 399.158C636.369 399.959 622.724 399.158 624.998 395.154C627.272 391.151 641.675 383.944 640.159 377.539Z" fill="#2F2E41"/>
<path d="M571.158 262.526L575.316 280.647C575.363 280.849 575.355 281.06 575.295 281.258L556.431 343.53C556.356 343.777 556.203 343.989 555.999 344.131C555.794 344.273 555.549 344.337 555.305 344.312C555.061 344.286 554.833 344.173 554.658 343.992C554.484 343.81 554.373 343.57 554.346 343.313L551.736 319.054C551.718 318.893 551.734 318.73 551.782 318.576L569.097 262.442C569.17 262.208 569.312 262.005 569.504 261.864C569.695 261.723 569.925 261.652 570.158 261.662C570.391 261.671 570.614 261.761 570.795 261.917C570.975 262.073 571.103 262.287 571.158 262.526V262.526Z" fill="#D0CDE1"/>
<path d="M569.628 264.057L573.468 279.604L556.829 336.385L552.989 318.81L569.628 264.057Z" fill="#F2F2F2"/>
<path d="M485.796 348.553C486.436 350.581 552.349 347.877 552.989 347.201C553.547 346.354 554.019 345.448 554.397 344.497C554.999 343.145 555.549 341.793 555.549 341.793L552.989 319.905L487.716 317.458C487.716 317.458 486.084 336.007 485.751 344.497C485.638 345.847 485.653 347.206 485.796 348.553Z" fill="#D0CDE1"/>
<path opacity="0.1" d="M544.67 322.866L545.95 341.793H517.153V322.866H544.67Z" fill="black"/>
<path opacity="0.1" d="M507.554 328.949L507.726 328.913L506.914 337.061H490.915V328.949H507.554Z" fill="black"/>
<path opacity="0.1" d="M485.796 348.553C486.436 350.581 552.349 347.877 552.989 347.201C553.547 346.354 554.019 345.448 554.397 344.497H485.751C485.638 345.847 485.653 347.206 485.796 348.553Z" fill="black"/>
<path opacity="0.1" d="M465.704 354.734C463.831 358.473 461.633 362.357 461.262 363.926C461.012 364.991 458.237 364.375 453.871 362.637C445.115 359.138 429.939 351.123 415.779 343.108C415.127 342.742 414.507 342.313 413.93 341.827C414.028 341.194 414.142 340.553 414.263 339.905C417.743 321.528 412.277 277.513 413.119 260.506L419.57 258.232L432.456 271.043V325.492C432.456 325.492 465.81 344.709 468.084 346.311C469.244 347.127 467.644 350.851 465.704 354.734Z" fill="black"/>
<path d="M493.857 311.079L514.324 322.289C514.324 322.289 526.453 308.677 534.033 319.086C541.614 329.496 512.05 332.698 512.05 332.698C512.05 332.698 486.277 326.293 485.519 317.485C484.761 308.677 493.857 311.079 493.857 311.079Z" fill="#FFB8B8"/>
<path d="M459.746 340.706L471.874 343.908C471.874 343.908 485.519 326.293 499.922 332.698C514.324 339.104 481.729 351.916 481.729 351.916C481.729 351.916 464.294 361.524 457.471 353.517C450.649 345.51 459.746 340.706 459.746 340.706Z" fill="#FFB8B8"/>
<path d="M486.277 235.011C487.035 235.811 495.373 242.217 495.373 242.217C495.373 242.217 497.648 272.644 494.615 279.05C491.583 285.456 489.309 285.456 491.583 288.659C493.857 291.862 496.89 289.46 493.857 295.065C490.825 300.67 487.793 299.869 490.067 302.271C492.341 304.673 491.583 305.474 491.583 305.474L500.68 313.481C500.68 313.481 495.099 322.871 488.035 322.179C480.971 321.488 474.906 285.456 474.906 285.456L486.277 235.011Z" fill="#FFE01B"/>
<path d="M419.57 254.228L412.747 256.63C412.747 256.63 394.554 327.093 415.779 339.104C437.004 351.115 460.504 363.126 461.262 359.923C462.02 356.72 470.358 343.909 468.084 342.307C465.81 340.706 432.456 321.488 432.456 321.488V267.04L419.57 254.228Z" fill="#FFE01B"/>
<path opacity="0.1" d="M429.803 283.454L428.287 321.889L468.463 341.907L431.319 321.889L429.803 283.454Z" fill="black"/>
<path d="M767.964 369.646C752.686 379.162 746.672 398.291 746.672 398.291C746.672 398.291 765.43 401.991 780.708 392.475C795.986 382.959 802 363.83 802 363.83C802 363.83 783.243 360.13 767.964 369.646Z" fill="#3F3D56"/>
<path d="M773.318 375.546C764.762 391.957 746.837 398.869 746.837 398.869C746.837 398.869 742.784 379.173 751.34 362.762C759.896 346.35 777.821 339.438 777.821 339.438C777.821 339.438 781.874 359.134 773.318 375.546Z" fill="#FFE01B"/>
<path d="M16.672 185.767C18.3467 185.767 19.7042 184.333 19.7042 182.564C19.7042 180.795 18.3467 179.361 16.672 179.361C14.9974 179.361 13.6399 180.795 13.6399 182.564C13.6399 184.333 14.9974 185.767 16.672 185.767Z" fill="#FFE01B"/>
<path d="M25.0105 185.767C26.6851 185.767 28.0426 184.333 28.0426 182.564C28.0426 180.795 26.6851 179.361 25.0105 179.361C23.3358 179.361 21.9783 180.795 21.9783 182.564C21.9783 184.333 23.3358 185.767 25.0105 185.767Z" fill="#FFE01B"/>
<path d="M33.3489 185.767C35.0235 185.767 36.381 184.333 36.381 182.564C36.381 180.795 35.0235 179.361 33.3489 179.361C31.6743 179.361 30.3167 180.795 30.3167 182.564C30.3167 184.333 31.6743 185.767 33.3489 185.767Z" fill="#FFE01B"/>
<path opacity="0.3" d="M103.846 303.37H59.8802V308.174H103.846V303.37Z" fill="#FFE01B"/>
<path opacity="0.3" d="M101.47 313.779H59.8802V318.584H101.47V313.779Z" fill="#FFE01B"/>
<path opacity="0.3" d="M90.1813 324.189H59.8802V328.993H90.1813V324.189Z" fill="#FFE01B"/>
<g opacity="0.3">
<path opacity="0.3" d="M206.182 303.37H162.215V308.174H206.182V303.37Z" fill="#FFE01B"/>
<path opacity="0.3" d="M203.805 313.779H162.215V318.584H203.805V313.779Z" fill="#FFE01B"/>
<path opacity="0.3" d="M192.517 324.189H162.215V328.993H192.517V324.189Z" fill="#FFE01B"/>
<path opacity="0.3" d="M206.182 303.37H162.215V308.174H206.182V303.37Z" fill="#FFE01B"/>
<path opacity="0.3" d="M203.805 313.779H162.215V318.584H203.805V313.779Z" fill="#FFE01B"/>
<path opacity="0.3" d="M192.517 324.189H162.215V328.993H192.517V324.189Z" fill="#FFE01B"/>
</g>
<path opacity="0.3" d="M312.307 303.37H268.341V308.174H312.307V303.37Z" fill="#FFE01B"/>
<path opacity="0.3" d="M309.931 313.779H268.341V318.584H309.931V313.779Z" fill="#FFE01B"/>
<path opacity="0.3" d="M298.642 324.189H268.341V328.993H298.642V324.189Z" fill="#FFE01B"/>
<path opacity="0.3" d="M109.911 240.914H53.8159V293.762H109.911V240.914Z" fill="#FFE01B"/>
<path d="M212.246 240.914H156.151V293.762H212.246V240.914Z" fill="#3F3D56"/>
<path d="M318.371 240.914H262.277V293.762H318.371V240.914Z" fill="#3F3D56"/>
<path d="M176.89 293.539L176.15 293.524C176.166 292.658 176.628 272.256 184.232 266.617L184.657 267.256C177.36 272.668 176.894 293.331 176.89 293.539Z" fill="#FFE01B"/>
<path d="M188.145 266.359C190.189 266.359 191.845 264.609 191.845 262.45C191.845 260.292 190.189 258.542 188.145 258.542C186.101 258.542 184.445 260.292 184.445 262.45C184.445 264.609 186.101 266.359 188.145 266.359Z" fill="#FFE01B"/>
<path d="M187.397 276.251C185.472 276.89 183.422 276.983 181.453 276.522C182.703 274.84 184.388 273.576 186.303 272.882C188.218 272.188 190.282 272.094 192.247 272.611C190.96 274.252 189.288 275.507 187.397 276.251V276.251Z" fill="#FFE01B"/>
<path d="M283.015 293.539L282.275 293.524C282.291 292.658 282.754 272.256 290.358 266.617L290.783 267.256C283.486 272.668 283.019 293.331 283.015 293.539Z" fill="#FFE01B"/>
<path d="M294.27 266.359C296.314 266.359 297.971 264.609 297.971 262.45C297.971 260.292 296.314 258.542 294.27 258.542C292.227 258.542 290.57 260.292 290.57 262.45C290.57 264.609 292.227 266.359 294.27 266.359Z" fill="#FFE01B"/>
<path d="M293.522 276.251C291.598 276.89 289.548 276.983 287.578 276.522C288.829 274.84 290.513 273.576 292.428 272.882C294.344 272.188 296.408 272.094 298.373 272.611C297.085 274.252 295.413 275.507 293.522 276.251V276.251Z" fill="#FFE01B"/>
<path d="M5.5595 393.953V394.453H6.0595H366.128H366.628V393.953V175.357V174.857H366.128H6.0595H5.5595V175.357V393.953ZM367.144 395.055H5.04343V174.256H367.144V395.055Z" fill="#F2F2F2" stroke="#E5E5E5"/>
<path d="M366.886 189.822H5.30145V191.424H366.886V189.822Z" fill="#E5E5E5"/>
<path d="M469.653 179.681C460.855 163.977 443.448 163.246 443.448 163.246C443.448 163.246 426.486 160.954 415.604 184.871C405.462 207.164 391.465 228.688 413.351 233.906L417.304 220.909L419.752 234.874C422.869 235.111 425.995 235.167 429.117 235.043C452.555 234.244 474.876 235.277 474.157 226.393C473.202 214.583 478.119 194.791 469.653 179.681Z" fill="#2F2E41"/>
<path d="M437.968 209.255C437.968 209.255 449.338 226.07 442.516 239.682C435.694 253.294 458.435 267.707 458.435 267.707L475.112 229.273C475.112 229.273 455.403 215.66 460.709 202.849L437.968 209.255Z" fill="#FBBEBE"/>
<path d="M445.548 216.461C456.433 216.461 465.257 207.14 465.257 195.642C465.257 184.145 456.433 174.824 445.548 174.824C434.663 174.824 425.839 184.145 425.839 195.642C425.839 207.14 434.663 216.461 445.548 216.461Z" fill="#FBBEBE"/>
<path d="M445.578 176.62C452.529 176.62 458.165 170.668 458.165 163.325C458.165 155.982 452.529 150.03 445.578 150.03C438.627 150.03 432.992 155.982 432.992 163.325C432.992 170.668 438.627 176.62 445.578 176.62Z" fill="#2F2E41"/>
<path d="M431.667 159.826C431.667 156.543 432.818 153.376 434.897 150.935C436.976 148.494 439.837 146.952 442.928 146.606C441.173 146.409 439.398 146.604 437.719 147.178C436.039 147.752 434.493 148.693 433.18 149.94C431.868 151.187 430.818 152.711 430.099 154.415C429.381 156.118 429.009 157.962 429.009 159.826C429.009 161.691 429.381 163.535 430.099 165.238C430.818 166.941 431.868 168.466 433.18 169.712C434.493 170.959 436.039 171.9 437.719 172.475C439.398 173.049 441.173 173.244 442.928 173.047C439.837 172.701 436.976 171.159 434.897 168.718C432.818 166.277 431.667 163.11 431.667 159.826V159.826Z" fill="#2F2E41"/>
<path d="M465.763 178.167L448.566 168.652L424.817 172.545L419.904 195.468L432.135 194.971L435.552 186.549V194.832L441.196 194.603L444.471 181.195L446.519 195.468L466.583 195.035L465.763 178.167Z" fill="#2F2E41"/>
</g>
<defs>
<filter id="filter0_i" x="0" y="0" width="802" height="450" filterUnits="userSpaceOnUse" color-interpolation-filters="sRGB">
<feFlood flood-opacity="0" result="BackgroundImageFix"/>
<feBlend mode="normal" in="SourceGraphic" in2="BackgroundImageFix" result="shape"/>
<feColorMatrix in="SourceAlpha" type="matrix" values="0 0 0 0 0 0 0 0 0 0 0 0 0 0 0 0 0 0 127 0" result="hardAlpha"/>
<feOffset dy="4"/>
<feGaussianBlur stdDeviation="2"/>
<feComposite in2="hardAlpha" operator="arithmetic" k2="-1" k3="1"/>
<feColorMatrix type="matrix" values="0 0 0 0 0 0 0 0 0 0 0 0 0 0 0 0 0 0 0.25 0"/>
<feBlend mode="normal" in2="shape" result="effect1_innerShadow"/>
</filter>
<clipPath id="clip0">
<rect width="802" height="446" fill="white"/>
</clipPath>
</defs>
</svg>
